<?xml version="1.0" encoding="utf-8"?>
<!-- Generator: Adobe Illustrator 23.0.3, SVG Export Plug-In . SVG Version: 6.00 Build 0)  -->
<svg version="1.1" id="Layer_1" xmlns="http://www.w3.org/2000/svg" xmlns:xlink="http://www.w3.org/1999/xlink" x="0px" y="0px"
	 viewBox="0 0 45.96 34.2" style="enable-background:new 0 0 45.96 34.2;" xml:space="preserve">
<style type="text/css">
	.st0{fill:#FFFFFF;}
</style>
<g>
	<path class="st0" d="M5.33,34.2C2.39,34.2,0,31.8,0,28.86V5.33C0,2.39,2.39,0,5.33,0h35.3c2.94,0,5.33,2.39,5.33,5.33v23.53
		c0,2.94-2.39,5.33-5.33,5.33H5.33z M3.52,31.91l0.81,0.25c0.31,0.09,0.63,0.19,1,0.19h35.3c0.37,0,0.69-0.1,0.98-0.19l0.81-0.25
		l-0.53-0.65L28.77,16.29l-5.19,4.45c-0.17,0.15-0.38,0.22-0.6,0.22s-0.43-0.08-0.6-0.22l-5.19-4.45L3.52,31.91z M30.17,15.09
		l13.6,15.54l0.23-1.08c0.01-0.05,0.02-0.1,0.04-0.15c0.04-0.15,0.09-0.33,0.09-0.54V5.33c0-0.39-0.1-0.72-0.2-1.02l-0.25-0.79
		L30.17,15.09z M2.04,4.32c-0.09,0.29-0.2,0.63-0.2,1.01v23.53c0,0.21,0.05,0.39,0.09,0.54l0.04,0.15l0.23,1.08l13.6-15.54
		L2.29,3.52L2.04,4.32z M5.33,1.84c-0.2,0-0.38,0.05-0.52,0.09c-0.05,0.01-0.1,0.03-0.14,0.04l-1.1,0.22l19.41,16.64L42.39,2.19
		l-1.1-0.22c-0.05-0.01-0.1-0.02-0.14-0.04c-0.14-0.04-0.31-0.09-0.52-0.09H5.33z"/>
</g>
</svg>
