<?xml version="1.0" encoding="utf-8"?>
<!-- Generator: Adobe Illustrator 23.0.3, SVG Export Plug-In . SVG Version: 6.00 Build 0)  -->
<svg version="1.1" id="Layer_1" xmlns="http://www.w3.org/2000/svg" xmlns:xlink="http://www.w3.org/1999/xlink" x="0px" y="0px"
	 viewBox="0 0 46.6 52.6" style="enable-background:new 0 0 46.6 52.6;" xml:space="preserve">
<style type="text/css">
	.st0{fill:#FFFFFF;}
</style>
<g>
	<path class="st0" d="M7.55,52.6C3.39,52.6,0,49.21,0,45.05V28.11c0-4.16,3.39-7.55,7.55-7.55h3.82v-8.92C11.37,5.22,16.72,0,23.3,0
		s11.92,5.22,11.92,11.65v8.92h3.83c4.16,0,7.55,3.39,7.55,7.55v16.94c0,4.16-3.39,7.55-7.55,7.55H7.55z M7.55,22.54
		c-3.07,0-5.58,2.5-5.58,5.58v16.94c0,3.07,2.5,5.58,5.58,5.58h31.5c3.07,0,5.58-2.5,5.58-5.58V28.11c0-3.07-2.5-5.58-5.58-5.58
		H7.55z M23.3,1.97c-5.49,0-9.95,4.34-9.95,9.67v8.92h19.9v-8.92C33.25,6.31,28.78,1.97,23.3,1.97z"/>
	<g>
		<circle class="st0" cx="35.65" cy="36.58" r="1.19"/>
		<circle class="st0" cx="19.14" cy="36.58" r="1.19"/>
		<circle class="st0" cx="10.94" cy="36.58" r="1.19"/>
		<circle class="st0" cx="27.34" cy="36.58" r="1.19"/>
	</g>
</g>
</svg>
