<?xml version="1.0" encoding="utf-8"?>
<!-- Generator: Adobe Illustrator 23.0.3, SVG Export Plug-In . SVG Version: 6.00 Build 0)  -->
<svg version="1.1" id="Layer_1" xmlns="http://www.w3.org/2000/svg" xmlns:xlink="http://www.w3.org/1999/xlink" x="0px" y="0px"
	 viewBox="0 0 1297 353.16" style="enable-background:new 0 0 1297 353.16;" xml:space="preserve">
<style type="text/css">
	.st0{fill:url(#SVGID_1_);}
	.st1{opacity:0.5;fill:url(#SVGID_2_);}
	.st2{opacity:0.2;fill:#BE8CF4;}
	.st3{opacity:0.5;fill:url(#SVGID_3_);}
	.st4{fill:#FFFFFF;}
	.st5{font-family:'OpenSans-Bold';}
	.st6{font-size:65px;}
	.st7{font-family:'OpenSans-Semibold';}
	.st8{font-size:55px;}
	.st9{fill:#FFF9F0;}
	.st10{fill:#15191E;}
</style>
<g>
	<g>
		<linearGradient id="SVGID_1_" gradientUnits="userSpaceOnUse" x1="-258.9585" y1="736.2043" x2="1415.4364" y2="-296.3867">
			<stop  offset="0" style="stop-color:#9600AA"/>
			<stop  offset="1" style="stop-color:#F66AFF"/>
		</linearGradient>
		<path class="st0" d="M1277,353.16H20c-11,0-20-9-20-20V20C0,9,9,0,20,0h1257c11,0,20,9,20,20v313.16
			C1297,344.16,1288,353.16,1277,353.16z"/>
		<linearGradient id="SVGID_2_" gradientUnits="userSpaceOnUse" x1="827.0698" y1="242.4812" x2="1297" y2="242.4812">
			<stop  offset="0" style="stop-color:#E57FFF"/>
			<stop  offset="0.2541" style="stop-color:#E26EFF"/>
			<stop  offset="0.7553" style="stop-color:#D942FF"/>
			<stop  offset="1" style="stop-color:#D42AFF"/>
		</linearGradient>
		<path class="st1" d="M1297,131.81v206.6c0,8.11-9,14.75-20,14.75H827.07L1297,131.81z"/>
		<polygon class="st2" points="480.55,0 0,226.35 0,168.61 357.94,0 		"/>
		<linearGradient id="SVGID_3_" gradientUnits="userSpaceOnUse" x1="803.3823" y1="-23.0224" x2="-243.5653" y2="497.4516">
			<stop  offset="0" style="stop-color:#75C5F2;stop-opacity:0"/>
			<stop  offset="1" style="stop-color:#65007F"/>
		</linearGradient>
		<path class="st3" d="M1053.16,0L303.41,353.16H20c-11,0-20-6.64-20-14.75V229.17L486.53,0H1053.16z"/>
	</g>
	<g>
		<g>
			<text transform="matrix(1 0 0 1 511.5664 155.196)" class="st4 st5 st6">competitive</text>
		</g>
		<g>
			<text transform="matrix(1 0 0 1 511.5664 238.1404)" class="st4 st7 st8">Paid Event</text>
		</g>
	</g>
	<g>
		<circle class="st9" cx="245.77" cy="176.58" r="134.72"/>
		<circle class="st10" cx="245.77" cy="176.58" r="124.18"/>
		<path class="st4" d="M306.97,207.73c-2.82-3.67-5.65-7.43-8.39-11.07l-3.75-5l1.56-1.66c0.79-0.83,1.59-1.64,2.39-2.47
			c1.47-1.49,2.96-3.03,4.39-4.59c0.18-0.18,0.34-0.37,0.5-0.54c0.08-0.09,0.16-0.18,0.24-0.27c2.8-3.18,3.68-7.48,2.35-11.53
			c-1.22-3.69-4.06-6.34-7.6-7.09c-0.27-0.05-0.48-0.2-0.62-0.31l-0.12-0.08l-0.49-0.3l0.22-0.53c1.3-3.25,1.3-6.18,0-9
			c-1.28-2.77-3.49-4.66-6.76-5.76l-0.84-0.29l0.49-0.75c2.1-3.12,2.59-6.79,1.34-10.05c-1.24-3.24-3.98-5.57-7.74-6.54l-0.63-0.16
			l0.14-0.62c0.1-0.46,0.2-0.91,0.31-1.37c0.24-0.96,0.48-1.89,0.52-2.81c0.29-5.08-1.73-8.91-5.97-11.36
			c-2.02-1.18-4.09-1.78-6.15-1.78c-2.24,0-4.49,0.71-6.72,2.09c-1.9,1.2-3.77,2.43-5.66,3.67c-0.84,0.56-2.96,1.96-2.96,1.96
			l-1.37-1.25c-0.68-0.62-1.32-1.22-1.98-1.79c-3.04-2.62-6.45-3.95-10.13-3.95c-1.15,0-2.35,0.14-3.54,0.39
			c-1.34,0.29-2.7,0.76-4.01,1.22c-0.56,0.2-1.1,0.39-1.66,0.58c-1.34,0.45-2.7,0.87-4.06,1.29c-3.3,1.03-6.71,2.09-9.88,3.48
			c-1.24,0.54-2.38,0.8-3.57,0.8c-0.92,0-1.9-0.15-3.18-0.5c-1.06-0.29-2.13-0.42-3.22-0.42c-6.6,0-11.99,5.19-12.27,11.83
			c-0.07,1.56,0.24,3.15,0.58,4.83c0.16,0.8,0.33,1.6,0.45,2.42l0.08,0.58l-0.56,0.16c-3.61,1.13-6.04,3.57-7.06,7.07
			c-1,3.52-0.22,6.88,2.35,10.01l0.49,0.6l-0.65,0.41c-2.93,1.86-4.59,4.3-5.05,7.48c-0.43,3.07,0.49,5.96,2.77,8.58l0.49,0.56
			l-0.6,0.43c-3.19,2.35-4.67,5.44-4.4,9.22c0.03,0.31,0.05,0.64,0.11,0.96c0.65,4.53,4.26,6.45,8.08,7.83l1.24,0.45l-1.09,0.75
			c-3.58,2.47-5.46,5.91-7.43,9.55c-0.49,0.88-0.96,1.76-1.48,2.65c-1.6,2.74-3.33,5.39-5.23,8.15c0.39,1.55,0.9,3.05,1.49,4.51
			c1.06-1.78,2.16-3.52,3.26-5.28c1.97-3.14,3.99-6.37,5.8-9.65c2.68-4.85,6.22-8.13,10.84-10.05c3.33-1.38,6.8-2.96,9.49-5.68
			c1.29-1.29,2.55-2.82,3.88-4.66c0.41-0.56,0.94-1.14,1.81-1.14c0.29,0,0.6,0.07,0.95,0.19c0.84,0.3,1.74,0.53,2.61,0.75l0.94,0.24
			c0.91,0.24,1.81,0.37,2.65,0.37c2.27,0,4.26-0.9,5.96-2.65c2.1-2.21,2.89-4.82,2.34-7.79c-0.07-0.3-0.14-0.6-0.22-0.91
			c-0.05-0.23-0.45-1.56-0.45-1.56l0.48-0.26c5.16-2.89,6.65-7.71,3.99-12.89l-0.31-0.62l0.62-0.3c4.18-2,6.27-4.96,6.41-9.07
			c0.12-4.13-1.85-7.3-6.03-9.71l-0.95-0.56c0,0,3.96-2.62,4.79-3.16l7.17-4.7c6.23-4.09,12.48-8.19,18.72-12.25
			c1.55-1,3.27-1.53,5.01-1.53c4.26,0,7.7,3.04,8.32,7.4c0.5,3.43-0.84,6.31-3.88,8.32c-1.38,0.92-2.81,1.79-4.22,2.67
			c-0.9,0.56-1.79,1.11-2.68,1.67c-1.29,0.83-1.66,1.75-1.07,2.76c0.34,0.58,0.79,0.87,1.38,0.87c0.49,0,1.06-0.19,1.66-0.54
			c0.98-0.6,1.97-1.19,2.95-1.81c1.19-0.72,2.39-1.45,3.6-2.17c1.22-0.72,2.57-1.11,3.87-1.11c2.1,0,4.03,1.01,5.28,2.76
			c2.1,2.95,1.52,6.73-1.44,9.21c-1.21,1.01-2.44,2-3.67,2.99c-0.9,0.71-1.78,1.43-2.66,2.15c-0.53,0.43-1.67,1.6-0.65,2.86
			c0.34,0.43,0.77,0.67,1.26,0.67c0.47,0,1.03-0.2,1.59-0.6c0.31-0.2,0.62-0.43,0.92-0.65c0.5-0.35,0.99-0.72,1.51-1.03
			c1.1-0.68,2.35-1.05,3.63-1.05c2.09,0,4.03,0.95,5.34,2.59c2.24,2.85,1.97,6.8-0.65,9.18c-1.55,1.43-3.19,2.8-4.78,4.11
			c-0.8,0.68-1.62,1.36-2.42,2.05c-0.54,0.45-1.06,1.05-1.15,1.7c-0.01,0.05-0.03,0.11-0.03,0.16c-0.04,0.37,0.07,0.75,0.37,1.13
			c0.34,0.45,0.76,0.66,1.25,0.66c0.53,0,1.17-0.26,1.83-0.75c0.01-0.01,0.04-0.03,0.05-0.04h0.01c0.94-0.68,1.82-1.37,2.74-2.05
			l1.24-0.94c1.58-1.18,3.14-1.78,4.62-1.78c1.15,0,2.28,0.35,3.38,1.06c2.57,1.66,3.87,5.27,2.97,8.24
			c-0.39,1.32-1.03,2.55-1.81,3.5l-0.24,0.29c-0.05,0.05-0.11,0.12-0.16,0.18c-13.32,14.7-27.59,25.97-43.67,34.41
			c-2.23,1.17-4.43,1.74-6.75,1.74c-0.91,0-1.86-0.1-2.82-0.29c-1.45-0.29-3.03-0.57-4.6-0.75c-0.34-0.04-0.68-0.05-1-0.05
			c-0.16,0-0.33,0-0.48,0.03c-0.39,0.01-0.79,0.07-1.15,0.16c-1.62,0.34-3,1.24-4.21,2.74c-6.03,7.49-11,14.83-15.13,22.38
			c1.62-0.2,3.19-0.52,4.73-0.95c3.46-6.01,7.67-12.1,12.95-18.79c0.87-1.1,1.79-1.7,2.89-1.85c0.19-0.03,0.39-0.04,0.6-0.04
			c0.16,0,0.35,0.01,0.54,0.04c0.14,0.01,0.29,0.03,0.43,0.05l0.84,0.18c1.64,0.31,3.34,0.65,4.98,0.72
			c0.11,0.01,0.22,0.01,0.33,0.01c2.04,0.04,3.65,0.87,5.12,2.59l0.48,0.57c1.29,1.52,2.61,3.08,3.63,4.82l0.33,0.56
			c2.21,3.76,4.49,7.64,6.53,11.61c0.03,0.04,0.04,0.08,0.07,0.12c1.56,0.49,3.16,0.88,4.81,1.15c-0.07-0.11-0.15-0.22-0.2-0.34
			c-0.19-0.29-0.37-0.6-0.52-0.95c-3.99-8.72-7.82-14.87-12.41-19.92c-0.16-0.2-0.2-0.41-0.23-0.57l-0.03-0.15l-0.12-0.52l0.46-0.24
			c13.16-6.83,24.44-14.72,34.47-24.1l0.57-0.53l0.45,0.62c0.54,0.75,1.07,1.48,1.59,2.21c1.1,1.56,2.16,3.04,3.29,4.47
			c1.85,2.35,3.72,4.67,5.59,6.99c1.98,2.46,3.95,4.9,5.91,7.37c0.09,0.12,0.19,0.26,0.26,0.41c0.38-1.19,0.71-2.4,0.95-3.64
			c0.05-0.26,0.11-0.53,0.14-0.79C309.11,210.37,307.99,209.04,306.97,207.73z M212.83,181.49c-3.26,3.86-6.64,7.86-12.34,7.86
			c-0.14,0-0.27-0.01-0.41-0.01c-1.91-0.07-4.09-0.64-6.31-1.64c-2.89-1.32-3.9-4.06-2.69-7.32c0.86-2.33,3.22-4.02,5.59-4.02
			c0.39,0,0.8,0.04,1.18,0.14c3.38,0.83,6.68,1.74,10.2,2.7c1.45,0.39,2.92,0.8,4.43,1.19l1.03,0.29L212.83,181.49z M229.71,175.38
			c-0.39,2.43-2.24,4.22-4.49,4.36c-0.14,0.01-0.27,0.01-0.42,0.01c-0.58,0-1.18-0.08-1.72-0.23c-7.98-2.16-15.95-4.33-23.91-6.53
			c-0.65-0.18-1.3-0.37-1.96-0.54c-3.26-0.9-5.34-3.98-4.85-7.14c0.54-3.41,3.25-5.61,6.9-5.61l0.18,0.01c0,0,0.24,0.05,0.35,0.07
			c0.41,0.08,1,0.19,1.57,0.42c8.47,3.31,16.93,6.65,25.39,10.01c0.27,0.11,0.52,0.23,0.76,0.38
			C229.1,171.59,230.02,173.52,229.71,175.38z M234.39,163.88c-0.72,1.94-2.46,3.2-4.41,3.2c-0.58,0-1.17-0.11-1.74-0.34
			c-11.3-4.37-20.53-7.98-29.06-11.35c-3.14-1.22-4.9-4.41-4.21-7.56c0.72-3.25,3.53-5.35,7.18-5.35h0.23l0.09,0.04
			c0.19,0.07,0.43,0.14,0.71,0.2c0.76,0.22,1.81,0.52,2.76,1.02c9.97,5.32,18.23,9.8,26.01,14.08
			C234.35,159.14,235.29,161.46,234.39,163.88z M237.36,141.83c2.77,1.97,3.58,5.5,1.94,8.38c-1.14,1.98-3.23,3.22-5.47,3.22
			c-0.96,0-1.9-0.22-2.76-0.68c-8.57-4.44-16.95-8.85-24.9-13.12c-2.95-1.59-4.37-4.33-4.45-6.23c-0.07-3.01,0.98-5.85,2.88-7.79
			c1.62-1.66,3.76-2.57,6.03-2.57c1.41,0,2.84,0.34,4.25,1.02c0.64,0.3,0.98,1.17,1.02,1.7c0.18,2.27,1.29,3.99,3.41,5.24l0.66,0.39
			c1.41,0.84,2.86,1.72,4.39,2.21c2.92,0.92,5.28,2.57,7.22,4.05c1.47,1.13,3.01,2.23,4.51,3.29L237.36,141.83z M253.01,122.21
			c-1.3,0.83-2.59,1.67-3.88,2.51c-3.03,1.97-6.16,3.99-9.33,5.85c-1.64,0.96-3.52,1.44-5.74,1.44c-1.05,0-2.19-0.11-3.45-0.33
			c-3.67-0.62-6.87-1.96-9.52-3.95c-0.71-0.53-1.44-1.7-1.37-2.68c0.05-0.91,1.07-1.91,1.94-2.23c6.6-2.28,12.56-4.33,18.68-6.23
			c1.02-0.33,2.06-0.48,3.1-0.48c3.49,0,6.95,1.81,9.72,5.08l0.5,0.58L253.01,122.21z"/>
	</g>
</g>
</svg>
