<?xml version="1.0" encoding="utf-8"?>
<!-- Generator: Adobe Illustrator 23.0.3, SVG Export Plug-In . SVG Version: 6.00 Build 0)  -->
<svg version="1.1" id="Layer_1" xmlns="http://www.w3.org/2000/svg" xmlns:xlink="http://www.w3.org/1999/xlink" x="0px" y="0px"
	 viewBox="0 0 1297 353.16" style="enable-background:new 0 0 1297 353.16;" xml:space="preserve">
<style type="text/css">
	.st0{fill:url(#SVGID_1_);}
	.st1{opacity:0.5;fill:url(#SVGID_2_);}
	.st2{opacity:0.5;fill:#5EB6DD;}
	.st3{opacity:0.5;fill:url(#SVGID_3_);}
	.st4{opacity:0.5;fill:url(#SVGID_4_);}
	.st5{fill:#FFFFFF;}
	.st6{font-family:'OpenSans-Bold';}
	.st7{font-size:65px;}
	.st8{font-family:'OpenSans-Semibold';}
	.st9{font-size:55px;}
	.st10{fill:#FFF9F0;}
	.st11{fill:#15191E;}
</style>
<g>
	<g>
		<linearGradient id="SVGID_1_" gradientUnits="userSpaceOnUse" x1="-258.9585" y1="736.2043" x2="1415.4364" y2="-296.3867">
			<stop  offset="0" style="stop-color:#009BD4"/>
			<stop  offset="1" style="stop-color:#15DBFF"/>
		</linearGradient>
		<path class="st0" d="M1277,353.16H20c-11,0-20-9-20-20V20C0,9,9,0,20,0h1257c11,0,20,9,20,20v313.16
			C1297,344.16,1288,353.16,1277,353.16z"/>
		<linearGradient id="SVGID_2_" gradientUnits="userSpaceOnUse" x1="-110.1661" y1="16.3267" x2="520.579" y2="191.6828">
			<stop  offset="0" style="stop-color:#2E7FAB"/>
			<stop  offset="1" style="stop-color:#7FC4EA"/>
		</linearGradient>
		<polygon class="st1" points="486.53,0 0,229.17 0,226.35 480.55,0 		"/>
		<polygon class="st2" points="480.55,0 0,226.35 0,168.61 357.94,0 		"/>
		<linearGradient id="SVGID_3_" gradientUnits="userSpaceOnUse" x1="803.3823" y1="-23.0224" x2="-156.4431" y2="454.1401">
			<stop  offset="0" style="stop-color:#75C5F2;stop-opacity:0"/>
			<stop  offset="1" style="stop-color:#005D7F"/>
		</linearGradient>
		<path class="st3" d="M1053.16,0L303.41,353.16H20c-11,0-20-6.64-20-14.75V229.17L486.53,0H1053.16z"/>
		<linearGradient id="SVGID_4_" gradientUnits="userSpaceOnUse" x1="827.0698" y1="242.4812" x2="1297" y2="242.4812">
			<stop  offset="0" style="stop-color:#AAE1FF"/>
			<stop  offset="1" style="stop-color:#75C5F2"/>
		</linearGradient>
		<path class="st4" d="M1297,131.81v206.6c0,8.11-9,14.75-20,14.75H827.07L1297,131.81z"/>
	</g>
	<g>
		<g>
			<text transform="matrix(1 0 0 1 511.5664 155.1963)" class="st5 st6 st7">Friendly</text>
		</g>
		<g>
			<text transform="matrix(1 0 0 1 511.5664 238.1406)" class="st5 st8 st9">Free Event</text>
		</g>
	</g>
	<g>
		<circle class="st10" cx="245.77" cy="176.58" r="134.72"/>
		<circle class="st11" cx="245.77" cy="176.58" r="124.18"/>
		<g>
			<path class="st5" d="M237.04,239.97c-0.48,0-0.97-0.04-1.46-0.12c-2.4-0.39-4.51-1.68-5.94-3.66c-1.11-1.53-1.7-3.32-1.73-5.2
				l-0.01-0.66l-0.63,0.2c-0.89,0.29-1.82,0.43-2.76,0.43c-0.49,0-0.98-0.04-1.46-0.12c-2.4-0.39-4.51-1.68-5.94-3.66
				c-1.1-1.52-1.7-3.32-1.72-5.21l-0.01-0.66l-0.63,0.2c-0.89,0.28-1.82,0.43-2.76,0.43c-2.87,0-5.6-1.35-7.31-3.61
				c-1.17-1.55-1.79-3.4-1.79-5.35l0-0.67l-0.64,0.21c-0.91,0.3-1.85,0.45-2.81,0.45c-2.92,0-5.69-1.41-7.4-3.77
				c-2.02-2.8-2.29-6.45-0.7-9.54l0.22-0.43l-5.77-3.08l-1.98,3.44c-0.32,0.55-0.92,0.89-1.57,0.89c-0.31,0-0.62-0.08-0.88-0.23
				l-12.08-6.98c-0.42-0.24-0.71-0.63-0.84-1.09c-0.12-0.46-0.06-0.95,0.18-1.37c0.32-0.56,0.92-0.9,1.56-0.9
				c0.31,0,0.62,0.08,0.9,0.24l2.9,1.67l30.52-52.86l-35.22-20.33c-0.42-0.24-0.71-0.63-0.84-1.09s-0.06-0.95,0.18-1.37
				c0.32-0.56,0.92-0.9,1.56-0.9c0.31,0,0.62,0.08,0.9,0.24l44.4,25.63c0.84,0.49,1.15,1.61,0.66,2.46l-3.67,6.35l4.16,2.42
				l10.76-1.26c0.07-0.01,0.14-0.01,0.21-0.01c0.24,0,0.48,0.05,0.7,0.14l4.33,1.82l1.65-6.59c0.2-0.8,0.92-1.36,1.75-1.36h26.83
				c0.19,0,0.38,0.03,0.57,0.09l11.96,3.95l3.54-2.71l-4.45-5.84c-0.3-0.39-0.42-0.9-0.33-1.4c0.09-0.5,0.38-0.94,0.79-1.2
				l37.89-24.56c0.29-0.19,0.62-0.28,0.97-0.28c0.62,0,1.18,0.31,1.51,0.83c0.26,0.4,0.35,0.89,0.24,1.36
				c-0.1,0.47-0.38,0.87-0.79,1.13l-36.25,23.5l36.87,48.4l4.87-3.87c0.32-0.25,0.71-0.39,1.12-0.39c0.55,0,1.07,0.25,1.41,0.68
				c0.62,0.78,0.49,1.91-0.29,2.53l-6.31,5.01c-0.31,0.25-0.7,0.38-1.11,0.38c0,0,0,0,0,0c-0.57,0-1.11-0.26-1.44-0.7l-2.4-3.16
				l-4.74,3.36l0.19,0.38c0.27,0.52,0.48,1.06,0.64,1.61c0.69,2.34,0.43,4.8-0.74,6.94c-1.17,2.14-3.09,3.69-5.43,4.38
				c-0.85,0.25-1.72,0.38-2.59,0.38c-0.54,0-1.1-0.05-1.64-0.15l-0.65-0.12l0.07,0.65c0.21,1.86-0.15,3.72-1.05,5.37
				c-1.6,2.93-4.67,4.75-8.02,4.75c-0.55,0-1.1-0.05-1.64-0.15l-0.65-0.12l0.07,0.65c0.21,1.87-0.15,3.73-1.05,5.38
				c-1.6,2.93-4.67,4.75-8.02,4.75c-0.55,0-1.1-0.05-1.64-0.15l-0.65-0.12l0.07,0.65c0.21,1.86-0.15,3.72-1.05,5.38
				c-1.17,2.14-3.09,3.69-5.43,4.38c-0.85,0.25-1.72,0.38-2.59,0.38c-1.51,0-3.01-0.39-4.35-1.12l-9.81-5.35l-0.23,0.42
				c-0.65,1.16-1.53,2.15-2.62,2.94l-5.33,3.86C240.8,239.37,238.96,239.97,237.04,239.97L237.04,239.97z M242.35,221.48
				c-1.17,0-2.28,0.36-3.22,1.04l-5.33,3.86c-2.46,1.79-3.01,5.25-1.24,7.7c1.03,1.42,2.71,2.27,4.49,2.27
				c1.17,0,2.28-0.36,3.21-1.03l5.33-3.86c1.22-0.88,2.01-2.19,2.23-3.67c0.22-1.49-0.17-2.96-1.08-4.16
				C245.7,222.29,244.06,221.48,242.35,221.48z M215.63,183.03c2.84,0,5.47,1.31,7.22,3.58c1.51,1.97,2.15,4.41,1.79,6.87
				c-0.03,0.2-0.07,0.39-0.11,0.58l-0.12,0.56l0.57,0.03c2.66,0.13,5.14,1.43,6.78,3.57c1.51,1.97,2.15,4.41,1.79,6.87
				c-0.03,0.2-0.07,0.39-0.11,0.58l-0.12,0.56l0.57,0.03c2.66,0.13,5.14,1.43,6.78,3.57c1.51,1.97,2.15,4.41,1.79,6.87
				c-0.03,0.2-0.07,0.39-0.11,0.58l-0.12,0.56l0.57,0.03c2.66,0.13,5.14,1.43,6.78,3.57c1.27,1.65,1.92,3.62,1.88,5.68l0,0.29
				l10.62,5.79c0.79,0.43,1.69,0.66,2.6,0.66c2.05,0,3.92-1.1,4.88-2.86c0.7-1.28,0.85-2.77,0.43-4.19
				c-0.42-1.43-1.36-2.59-2.63-3.29l-14.77-8.05c-0.42-0.23-0.73-0.61-0.87-1.07c-0.14-0.46-0.08-0.95,0.15-1.37
				c0.32-0.58,0.92-0.94,1.58-0.94c0.3,0,0.6,0.08,0.86,0.22l19.05,10.38c0.79,0.43,1.69,0.66,2.6,0.66c2.05,0,3.92-1.1,4.88-2.86
				c1.45-2.67,0.47-6.03-2.2-7.48l-18.2-9.92c-0.42-0.23-0.73-0.61-0.87-1.07c-0.14-0.46-0.08-0.95,0.15-1.37
				c0.32-0.58,0.92-0.94,1.58-0.94c0.3,0,0.59,0.08,0.86,0.22l22.47,12.25c0.81,0.44,1.72,0.67,2.63,0.67c2.03,0,3.89-1.1,4.85-2.88
				c1.46-2.67,0.47-6.03-2.2-7.48l-22.15-12.07c-0.87-0.47-1.19-1.57-0.72-2.44c0.31-0.58,0.92-0.94,1.58-0.94
				c0.3,0,0.6,0.08,0.86,0.22l26.43,14.41c0.79,0.43,1.69,0.66,2.6,0.66c2.05,0,3.92-1.1,4.88-2.86c1.43-2.63,0.42-6.05-2.2-7.48
				l-48.04-26.18l-0.73,1.17v18.99c0,6.37-5.18,11.55-11.55,11.55c-6.37,0-11.55-5.18-11.55-11.55v-19.51
				c0-0.15,0.02-0.29,0.05-0.44l2.35-9.39l-4.41-1.86l-10.88,1.27c-0.07,0.01-0.14,0.01-0.21,0.01c-0.32,0-0.63-0.08-0.9-0.24
				l-4.67-2.71l-23.06,39.95l6.47,3.45l16.2-11.72C211.85,183.63,213.7,183.03,215.63,183.03z M233.45,209.85
				c-1.16,0-2.28,0.37-3.24,1.06l-8.95,6.48c-2.46,1.78-3.01,5.24-1.23,7.7c0.86,1.19,2.14,1.98,3.6,2.21
				c0.29,0.05,0.59,0.07,0.89,0.07c1.16,0,2.27-0.36,3.22-1.05l8.95-6.47c1.2-0.87,1.99-2.18,2.21-3.68
				c0.22-1.5-0.16-2.97-1.06-4.15C236.76,210.64,235.17,209.85,233.45,209.85z M224.54,198.25c-0.73,0-1.47,0.15-2.15,0.44
				c-0.44,0.19-0.82,0.44-1.17,0.69l-0.24,0.17l-12.1,8.76c-1.23,0.89-2.06,2.28-2.29,3.82c-0.22,1.48,0.13,2.92,0.99,4.07
				c1.03,1.37,2.68,2.19,4.42,2.19c1.17,0,2.28-0.36,3.22-1.04l12.56-9.09c1.2-0.87,1.99-2.18,2.21-3.68
				c0.22-1.5-0.16-2.97-1.06-4.15c-0.99-1.28-2.47-2.07-4.07-2.16C224.74,198.25,224.64,198.25,224.54,198.25z M215.62,186.64
				c-1.16,0-2.28,0.37-3.24,1.06l-16.17,11.7c-1.19,0.86-1.98,2.14-2.21,3.6c-0.23,1.46,0.11,2.92,0.98,4.11
				c1.03,1.43,2.71,2.28,4.48,2.28c1.17,0,2.28-0.36,3.23-1.05l16.18-11.7c1.2-0.87,1.99-2.18,2.2-3.68
				c0.22-1.5-0.16-2.97-1.06-4.15C218.93,187.43,217.34,186.64,215.62,186.64z M177.09,193.64l4.51,2.6l30.52-52.86l-4.51-2.6
				L177.09,193.64z M232.94,166.67v19.29c0,4.39,3.57,7.96,7.96,7.96s7.96-3.57,7.96-7.96v-19.51c0-0.34,0.09-0.67,0.27-0.95
				l4.95-7.92c0.33-0.53,0.9-0.85,1.53-0.85c0.34,0,0.67,0.09,0.95,0.27c0.84,0.53,1.1,1.64,0.57,2.48l-2.03,3.25l47.85,26.08
				c0.3,0.16,0.59,0.35,0.87,0.54l0.28,0.2l4.95-3.52l-27.95-36.7l-4.29,3.28c-0.31,0.24-0.7,0.37-1.1,0.37
				c-0.19,0-0.38-0.03-0.56-0.09l-12.59-4.16h-25.13L232.94,166.67z"/>
		</g>
	</g>
</g>
</svg>
