<?xml version="1.0" encoding="utf-8"?>
<!-- Generator: Adobe Illustrator 23.0.3, SVG Export Plug-In . SVG Version: 6.00 Build 0)  -->
<svg version="1.1" id="Layer_1" xmlns="http://www.w3.org/2000/svg" xmlns:xlink="http://www.w3.org/1999/xlink" x="0px" y="0px"
	 viewBox="0 0 148.61 148.61" style="enable-background:new 0 0 148.61 148.61;" xml:space="preserve">
<style type="text/css">
	.st0{fill:none;stroke:#FFFFFF;stroke-width:2;stroke-miterlimit:10;}
	.st1{fill:#FCFCFC;}
</style>
<g>
	<circle class="st0" cx="74.3" cy="74.3" r="73.3"/>
	<g>
		<g>
			<path class="st1" d="M40.87,55.36v37.89c0,5.22,4.26,9.48,9.48,9.48h30.63c5.22,0,9.48-4.26,9.48-9.48v-6.14
				c0-1.04-0.84-1.88-1.88-1.88s-1.88,0.84-1.88,1.88v6.14c0,3.16-2.58,5.74-5.74,5.74H50.36c-3.16,0-5.74-2.58-5.74-5.74V55.36
				c0-3.16,2.58-5.74,5.74-5.74h30.63c3.16,0,5.74,2.58,5.74,5.74v6.14c0,1.04,0.84,1.88,1.88,1.88s1.88-0.84,1.88-1.88v-6.14
				c0-5.22-4.26-9.48-9.48-9.48H50.36C45.13,45.87,40.87,50.12,40.87,55.36z"/>
			<path class="st1" d="M99.72,88.43c0.37,0.37,0.84,0.55,1.33,0.55s0.96-0.18,1.33-0.55l12.81-12.81c0.73-0.73,0.73-1.91,0-2.64
				l-12.81-12.81c-0.73-0.73-1.91-0.73-2.64,0c-0.73,0.73-0.73,1.91,0,2.64l9.62,9.62h-35.1c-1.04,0-1.88,0.84-1.88,1.88
				c0,1.04,0.84,1.88,1.88,1.88h35.08l-9.62,9.62C98.98,86.52,98.98,87.71,99.72,88.43z"/>
		</g>
	</g>
</g>
</svg>
