<?xml version="1.0" encoding="utf-8"?>
<!-- Generator: Adobe Illustrator 23.0.3, SVG Export Plug-In . SVG Version: 6.00 Build 0)  -->
<svg version="1.1" id="Layer_1" xmlns="http://www.w3.org/2000/svg" xmlns:xlink="http://www.w3.org/1999/xlink" x="0px" y="0px"
	 viewBox="0 0 148.61 148.61" style="enable-background:new 0 0 148.61 148.61;" xml:space="preserve">
<style type="text/css">
	.st0{fill:none;stroke:#FFFFFF;stroke-width:2;stroke-miterlimit:10;}
	.st1{fill:#FCFCFC;}
</style>
<g>
	<circle class="st0" cx="74.3" cy="74.3" r="73.3"/>
	<g>
		<g>
			<g>
				<path class="st1" d="M114.9,61.8L89.67,36.57c-1.36-1.36-3.18-2.11-5.12-2.11c-1.94,0-3.75,0.75-5.12,2.11l-40,40
					c-1.36,1.36-2.11,3.18-2.11,5.12s0.75,3.75,2.11,5.12l3.11,3.11c0,0,0,0,0,0c0,0,0,0,0,0l20.91,20.91h-2.9
					c-0.92,0-1.66,0.74-1.66,1.66c0,0.92,0.74,1.66,1.66,1.66h9.21c0,0,0,0,0.01,0s0,0,0.01,0l23.98,0c0.92,0,1.66-0.74,1.66-1.66
					c0-0.92-0.74-1.66-1.66-1.66l-17.66,0l38.79-38.79C117.72,69.21,117.72,64.62,114.9,61.8z M112.55,69.69l-40,40
					c-0.73,0.73-1.71,1.14-2.76,1.14h-0.01c-1.05,0-2.03-0.41-2.76-1.14L46.07,88.74l38.42-38.42c0.65-0.65,0.65-1.7,0-2.35
					c-0.65-0.65-1.7-0.65-2.35,0L43.72,86.39l-1.94-1.94c-0.73-0.73-1.14-1.72-1.14-2.77s0.4-2.03,1.14-2.77l40-40
					c0.74-0.73,1.72-1.14,2.77-1.14c1.05,0,2.03,0.4,2.77,1.14l8.98,8.98L57.88,86.32c-0.65,0.65-0.65,1.7,0,2.35
					c0.32,0.32,0.75,0.49,1.17,0.49s0.85-0.16,1.17-0.49l38.42-38.42l13.91,13.91C114.08,65.68,114.08,68.16,112.55,69.69z"/>
				<path class="st1" d="M78.23,82.41c-0.65-0.65-1.7-0.65-2.35,0L62.81,95.47c-0.65,0.65-0.65,1.7,0,2.35
					c0.32,0.32,0.75,0.49,1.17,0.49c0.42,0,0.85-0.16,1.17-0.49l13.07-13.07C78.88,84.11,78.88,83.06,78.23,82.41z"/>
				<path class="st1" d="M72.87,94.81l-5.36,5.36c-0.65,0.65-0.65,1.7,0,2.35c0.32,0.32,0.75,0.49,1.17,0.49
					c0.43,0,0.85-0.16,1.17-0.49l5.36-5.36c0.65-0.65,0.65-1.7,0-2.35C74.57,94.16,73.52,94.16,72.87,94.81z"/>
				<path class="st1" d="M77.8,89.88l-0.7,0.7c-0.65,0.65-0.65,1.7,0,2.35c0.32,0.32,0.75,0.49,1.17,0.49s0.85-0.16,1.17-0.49
					l0.7-0.7c0.65-0.65,0.65-1.7,0-2.35C79.5,89.23,78.45,89.23,77.8,89.88z"/>
				<path class="st1" d="M100.69,59.95c-0.31-0.31-0.73-0.49-1.17-0.49s-0.86,0.17-1.17,0.49l-7.04,7.04
					c-0.31,0.31-0.49,0.73-0.49,1.17c0,0.44,0.17,0.86,0.49,1.17l4.7,4.7c0.32,0.32,0.75,0.49,1.17,0.49c0.43,0,0.85-0.16,1.17-0.49
					l7.04-7.04c0.65-0.65,0.65-1.7,0-2.35L100.69,59.95z M97.16,70.52l-2.35-2.35l4.7-4.7l2.35,2.35L97.16,70.52z"/>
				<path class="st1" d="M87.18,46.94c0.43,0,0.85-0.16,1.17-0.49l0.7-0.7c0.65-0.65,0.65-1.7,0-2.35c-0.65-0.65-1.7-0.65-2.35,0
					l-0.7,0.7c-0.65,0.65-0.65,1.7,0,2.35C86.33,46.77,86.76,46.94,87.18,46.94z"/>
				<path class="st1" d="M54.01,90.19l-0.7,0.7c-0.65,0.65-0.65,1.7,0,2.35c0.32,0.32,0.75,0.49,1.17,0.49s0.85-0.16,1.17-0.49
					l0.7-0.7c0.65-0.65,0.65-1.7,0-2.35C55.71,89.54,54.66,89.54,54.01,90.19z"/>
			</g>
		</g>
	</g>
</g>
</svg>
