<?xml version="1.0" encoding="utf-8"?>
<!-- Generator: Adobe Illustrator 23.0.3, SVG Export Plug-In . SVG Version: 6.00 Build 0)  -->
<svg version="1.1" id="Layer_1" xmlns="http://www.w3.org/2000/svg" xmlns:xlink="http://www.w3.org/1999/xlink" x="0px" y="0px"
	 viewBox="0 0 148.61 148.61" style="enable-background:new 0 0 148.61 148.61;" xml:space="preserve">
<style type="text/css">
	.st0{fill:none;stroke:#FFFFFF;stroke-width:2;stroke-miterlimit:10;}
	.st1{fill:#FCFCFC;}
</style>
<g>
	<circle class="st0" cx="74.3" cy="74.3" r="73.3"/>
	<g>
		<path class="st1" d="M98.14,45.83c0.04,0,0.07,0.01,0.11,0.01c0.06,0,0.13-0.01,0.19-0.01c1.68,0.03,3.02,1.4,3.02,3.08
			c0,0.76,0.62,1.38,1.38,1.38c0.76,0,1.38-0.62,1.38-1.38c0-2.74-1.91-5.12-4.59-5.71v-1.33c0-0.76-0.62-1.38-1.38-1.38
			s-1.38,0.62-1.38,1.38v1.39c-2.83,0.76-4.67,3.5-4.29,6.41c0.38,2.91,2.86,5.08,5.8,5.08c1.7,0,3.08,1.38,3.08,3.08
			c0,1.7-1.38,3.08-3.08,3.08c-1.7,0-3.08-1.38-3.08-3.08c0-0.76-0.62-1.38-1.38-1.38s-1.38,0.62-1.38,1.38
			c0,2.65,1.78,4.96,4.34,5.65v1.51c0,0.76,0.62,1.38,1.38,1.38s1.38-0.62,1.38-1.38v-1.45c2.92-0.64,4.88-3.37,4.56-6.34
			c-0.32-2.97-2.83-5.22-5.81-5.22c-1.66,0-3.02-1.31-3.08-2.96C95.24,47.37,96.49,45.96,98.14,45.83L98.14,45.83z"/>
		<path class="st1" d="M98.46,33.74c-8.49,0-15.74,5.54-18.46,12.96H45.74c-0.76,0-1.38,0.68-1.38,1.44l-0.33,48.43h-9.77
			c-0.76,0-1.42,0.55-1.42,1.32v6.15c0.02,5.79,4.57,10.54,10.36,10.8v0.03h42.63v-0.04c0.35,0.01,0.49,0.04,0.71,0.04h0.03
			c5.98-0.01,10.83-4.86,10.83-10.84V72.95c0.35,0.02,0.71,0.03,1.07,0.03c10.81,0,19.6-8.81,19.6-19.62
			C118.06,42.55,109.27,33.74,98.46,33.74z M43.73,112.11L43.73,112.11c-4.48-0.01-8.1-3.62-8.12-8.08v-4.69h40.04V104
			c0,2.88,1.15,5.64,3.2,7.67c0.14,0.14,0.32,0.26,0.48,0.43H43.73z M94.63,104.02c0,4.46-3.61,8.08-8.07,8.08h-0.03
			c-4.48-0.01-8.11-3.63-8.13-8.1v-6.11c0.01-0.35-0.12-0.7-0.37-0.94c-0.25-0.25-0.59-0.38-0.94-0.37h-30.3l0.32-47.12h32.13
			c-0.24,1.26-0.37,2.55-0.38,3.83c0,2.72,0.56,5.41,1.67,7.9H67.49c-0.76,0-1.38,0.62-1.38,1.38s0.62,1.38,1.38,1.38h14.54
			c2.85,4.48,7.4,7.6,12.61,8.65V104.02z M98.46,70.22c-9.3,0-16.84-7.54-16.84-16.84c0-9.3,7.54-16.84,16.84-16.84
			c9.3,0,16.84,7.54,16.84,16.84C115.29,62.67,107.76,70.21,98.46,70.22z"/>
		<path class="st1" d="M66.11,74.66c0,0.76,0.62,1.38,1.38,1.38h18.41c0.76,0,1.38-0.62,1.38-1.38c0-0.76-0.62-1.38-1.38-1.38H67.49
			C66.72,73.28,66.11,73.9,66.11,74.66z"/>
		<path class="st1" d="M56.97,59.7c-1.69,0-3.06,1.33-3.06,2.96s1.37,2.96,3.06,2.96s3.06-1.33,3.06-2.96S58.65,59.7,56.97,59.7z"/>
		<path class="st1" d="M56.97,71.7c-1.69,0-3.06,1.33-3.06,2.96c0,1.63,1.37,2.96,3.06,2.96s3.06-1.33,3.06-2.96
			C60.03,73.02,58.65,71.7,56.97,71.7z"/>
		<path class="st1" d="M56.97,83.85c-1.69,0-3.06,1.33-3.06,2.96c0,1.63,1.37,2.96,3.06,2.96s3.06-1.33,3.06-2.96
			C60.03,85.18,58.65,83.85,56.97,83.85z"/>
		<path class="st1" d="M85.89,85.36H67.49c-0.76,0-1.38,0.62-1.38,1.38c0,0.76,0.62,1.38,1.38,1.38h18.41
			c0.76,0,1.38-0.62,1.38-1.38C87.27,85.98,86.66,85.36,85.89,85.36z"/>
	</g>
</g>
</svg>
