<?xml version="1.0" encoding="utf-8"?>
<!-- Generator: Adobe Illustrator 23.0.3, SVG Export Plug-In . SVG Version: 6.00 Build 0)  -->
<svg version="1.1" id="Layer_1" xmlns="http://www.w3.org/2000/svg" xmlns:xlink="http://www.w3.org/1999/xlink" x="0px" y="0px"
	 viewBox="0 0 148.61 148.61" style="enable-background:new 0 0 148.61 148.61;" xml:space="preserve">
<style type="text/css">
	.st0{fill:none;stroke:#FFFFFF;stroke-width:2;stroke-miterlimit:10;}
	.st1{fill:#FCFCFC;}
</style>
<g>
	<circle class="st0" cx="74.3" cy="74.3" r="73.3"/>
	<g>
		<path class="st1" d="M112.4,71.69h-3.67v-16.9c0-4.05-3.3-7.35-7.35-7.35H96.4l-5.09-9.15c-0.78-1.4-2.25-2.27-3.85-2.27
			c-0.75,0-1.49,0.19-2.14,0.56L65.78,47.45H43.96c-4.05,0-7.35,3.3-7.35,7.35v50.44c0,4.05,3.3,7.35,7.35,7.35h57.42
			c4.05,0,7.35-3.3,7.35-7.35V90.42h3.67L112.4,71.69L112.4,71.69z M101.38,50.38c2.26,0,4.11,1.72,4.36,3.92h-5.52l-2.18-3.92
			H101.38z M86.75,39.15c0.69-0.39,1.62-0.12,2,0.57l8.11,14.58H59.5L86.75,39.15z M105.78,105.23c0,2.43-1.98,4.41-4.41,4.41H43.96
			c-2.43,0-4.41-1.98-4.41-4.41V54.79c0-2.43,1.98-4.41,4.41-4.41H60.5l-7.05,3.92h-8.58c-0.81,0-1.47,0.66-1.47,1.47
			s0.66,1.47,1.47,1.47h3.29h53.68h3.94v14.45H95.04c-4.99,0-9.05,4.06-9.05,9.05v0.63c0,4.99,4.06,9.05,9.05,9.05h10.74
			L105.78,105.23L105.78,105.23z M109.46,87.48h-0.73H95.04c-3.37,0-6.11-2.74-6.11-6.11v-0.63c0-3.37,2.74-6.11,6.11-6.11h13.68
			h0.73V87.48z M99.54,81.17c0,1.79-1.45,3.24-3.24,3.24c-1.79,0-3.24-1.45-3.24-3.24s1.45-3.24,3.24-3.24
			C98.09,77.93,99.54,79.38,99.54,81.17z"/>
	</g>
</g>
</svg>
