<?xml version="1.0" encoding="utf-8"?>
<!-- Generator: Adobe Illustrator 23.0.3, SVG Export Plug-In . SVG Version: 6.00 Build 0)  -->
<svg version="1.1" id="Layer_1" xmlns="http://www.w3.org/2000/svg" xmlns:xlink="http://www.w3.org/1999/xlink" x="0px" y="0px"
	 viewBox="0 0 46.2 42.56" style="enable-background:new 0 0 46.2 42.56;" xml:space="preserve">
<style type="text/css">
	.st0{fill:#FFFFFF;}
</style>
<g>
	<path class="st0" d="M4.6,42.56c-2.22,0-4.6-0.98-4.6-3.71V6.72c0-2.16,1.13-3.08,3.79-3.08l5.07,0l0.05-0.52c0-0.22,0-0.41,0-0.6
		C8.94,1.11,10.05,0,11.45,0c1.39,0,2.5,1.11,2.53,2.52c0,0.18,0,0.35,0,0.53l0,0.51l6.54,0.05l0.05-0.49c0-0.21,0-0.4,0-0.6
		C20.6,1.11,21.71,0,23.1,0c1.39,0,2.5,1.11,2.53,2.52c0,0.18,0,0.36,0,0.53l0,0.5l6.54,0.05l0.05-0.96C32.23,1.14,33.32,0,34.75,0
		c1.43,0,2.52,1.15,2.53,2.66v0.93l5.31,0.05c1.09,0,3.61,0.3,3.61,3.07v32.13c0,1.85-1.34,3.71-4.32,3.71L4.6,42.56z M1.42,37.99
		c0,1.94,1.21,3.15,3.15,3.15l36.96,0c2.06,0,3.24-1.18,3.24-3.24l0-25.47L1.42,12.37L1.42,37.99z M5.56,5.06
		c-0.74,0-1.47,0.01-2.2,0.03C2.35,5.13,1.47,6.05,1.43,7.1C1.41,7.93,1.41,8.75,1.42,9.59l0,1.25l43.23,0.05l0.08-0.15
		c0.03-0.08,0.04-0.12,0.04-0.17l0-3.19c0-1.41-0.92-2.33-2.34-2.33l-4.54,0c-0.1,0-0.2,0.01-0.29,0.02L37.33,5.1l-0.05,1.04
		c-0.01,1.42-1.11,2.55-2.49,2.56c-1.42,0-2.54-1.11-2.57-2.53c0-0.18,0-0.36,0-0.53l0-0.49L25.68,5.1L25.63,6.1
		c-0.02,1.48-1.11,2.6-2.53,2.6c-1.4-0.01-2.51-1.14-2.53-2.58V5.14l-6.54-0.05L13.98,5.6c0,0.22,0,0.44,0,0.65
		C13.93,7.6,12.79,8.7,11.44,8.7c-1.35-0.01-2.48-1.11-2.52-2.46c-0.01-0.21-0.01-0.43,0-0.65l0-0.47C8.87,5.08,6.08,5.06,5.56,5.06
		z M23.09,1.42c-0.63,0-1.1,0.5-1.1,1.18c-0.01,1.17-0.01,2.33,0,3.5c0.01,0.68,0.47,1.18,1.1,1.18c0.64,0,1.1-0.49,1.11-1.18
		c0.01-0.4,0-0.8,0-1.2V3.83c0-0.41,0-0.82,0-1.23C24.19,1.92,23.73,1.42,23.09,1.42L23.09,1.42z M11.45,1.42
		c-0.63,0-1.1,0.49-1.11,1.17c-0.01,1.17-0.01,2.33,0,3.5c0,0.68,0.47,1.18,1.1,1.19c0.63,0,1.1-0.49,1.11-1.17
		c0.01-0.35,0.01-0.69,0-1.04V3.71c0-0.37,0-0.73,0-1.1C12.55,1.92,12.09,1.43,11.45,1.42L11.45,1.42z M34.75,1.43
		c-0.64,0.01-1.1,0.5-1.11,1.19c-0.01,0.36,0,0.72,0,1.07l0,1.18c0,0.4,0,0.81,0,1.21c0.01,0.7,0.46,1.19,1.09,1.2
		c0.64,0,1.12-0.49,1.12-1.17c0.01-1.17,0.01-2.34,0-3.51C35.85,1.92,35.39,1.43,34.75,1.43L34.75,1.43z"/>
	<path class="st0" d="M33.24,37.27c-0.58,0-0.84-0.26-0.84-0.84c0-2.35,0-4.7,0-7.05c0-0.55,0.26-0.81,0.81-0.81l7,0
		c0.65,0,0.89,0.24,0.89,0.88c0,2.32,0.01,4.64,0,6.96c0,0.61-0.26,0.87-0.86,0.87l-2.99,0C35.92,37.28,34.58,37.28,33.24,37.27z
		 M33.85,35.78l5.75,0.05l0.05-5.75l-5.8-0.05V35.78z"/>
	<path class="st0" d="M5.92,24.89c-0.55,0-0.82-0.27-0.82-0.82c-0.01-2.36,0-4.73,0-7.09c0-0.53,0.26-0.79,0.79-0.79l5.67-0.01
		l1.37,0c0.61,0,0.86,0.25,0.86,0.86c0,2.33,0,4.67,0,7c0,0.58-0.26,0.84-0.83,0.84l-3.52,0C8.26,24.9,7.09,24.9,5.92,24.89z
		 M6.55,23.4l5.75,0.05l0.05-5.77l-5.8-0.05V23.4z"/>
	<path class="st0" d="M19.67,24.9c-0.67,0-0.92-0.25-0.92-0.9c0-2.29,0-4.58,0-6.86c0-0.71,0.22-0.94,0.92-0.94l6.91,0
		c0.64,0,0.88,0.24,0.88,0.89c0,2.32,0,4.64,0,6.96c0,0.6-0.26,0.85-0.87,0.85l-4.22,0L19.67,24.9z M20.19,23.39l5.75,0.05
		l0.05-5.75l-5.8-0.05V23.39z"/>
	<path class="st0" d="M33.28,24.89c-0.63,0-0.88-0.25-0.88-0.89c0-0.82,0-6.91,0-6.91c0-0.67,0.23-0.9,0.91-0.9l6.91,0
		c0.64,0,0.88,0.24,0.88,0.88c0,2.32,0,4.64,0,6.95c0,0.6-0.26,0.86-0.86,0.86l-3.43,0L33.28,24.89z M33.86,23.4l5.75,0.05
		l0.05-5.75l-5.8-0.05V23.4z"/>
	<path class="st0" d="M5.99,37.27c-0.64,0-0.89-0.25-0.89-0.88c0-2.32,0-4.64,0-6.95c0-0.61,0.25-0.86,0.85-0.86l7,0
		c0.59,0,0.84,0.25,0.84,0.83c0.01,0.84,0.01,1.69,0,2.53c0,0,0,3.63,0,4.47c0,0.61-0.26,0.87-0.85,0.87l-3.67,0L5.99,37.27z
		 M6.55,35.79l5.74,0.05l0.05-5.77l-5.79-0.05V35.79z"/>
	<path class="st0" d="M19.57,37.27c-0.55,0-0.82-0.27-0.82-0.81c-0.01-2.36-0.01-4.73,0-7.09c0-0.53,0.26-0.79,0.79-0.79
		c0.24,0,7.04,0,7.04,0c0.62,0,0.87,0.25,0.87,0.85c0,2.33,0,4.67,0,7c0,0.58-0.26,0.85-0.83,0.85l-3.52,0
		C21.92,37.28,20.74,37.27,19.57,37.27z M20.21,35.78l5.75,0.05L26,30.06l-5.8-0.05V35.78z"/>
</g>
</svg>
