<?xml version="1.0" encoding="utf-8"?>
<!-- Generator: Adobe Illustrator 23.0.3, SVG Export Plug-In . SVG Version: 6.00 Build 0)  -->
<svg version="1.1" id="Layer_1" xmlns="http://www.w3.org/2000/svg" xmlns:xlink="http://www.w3.org/1999/xlink" x="0px" y="0px"
	 viewBox="0 0 45.96 46.2" style="enable-background:new 0 0 45.96 46.2;" xml:space="preserve">
<style type="text/css">
	.st0{fill:none;stroke:#FFFFFF;stroke-width:1.5;stroke-miterlimit:10;}
</style>
<path class="st0" d="M38.24,45.34c0.35-0.07,1.42-0.81,1.8-1.19c1.78-1.83,3.01-3.15,4.68-5.09c0.81-0.94,0.61-1.51-0.46-2.23
	c-2.79-1.86-5.62-3.68-8.39-5.59c-0.93-0.64-1.73-0.59-2.63-0.08c-1.47,0.84-2.98,1.62-4.42,2.52c-0.7,0.44-1.2,0.39-1.79-0.1
	c-1.84-1.55-3.85-2.93-5.52-4.64c-3.13-3.22-6.06-6.63-9.08-9.96c-0.55-0.61-0.57-1.17-0.11-1.9c0.91-1.47,1.71-3.02,2.56-4.53
	c0.47-0.84,0.46-1.57-0.12-2.42c-1.9-2.77-3.73-5.59-5.59-8.38C8.4,0.62,7.84,0.43,6.84,1.28C4.93,2.91,3.07,4.63,1.31,6.43
	c-0.44,0.45-0.6,1.36-0.56,2.04c0.19,2.73,1.23,5.23,2.61,7.55c6.19,10.41,14.61,18.7,24.6,25.43
	C30.96,43.46,34.72,46.01,38.24,45.34z"/>
</svg>
