<?xml version="1.0" encoding="utf-8"?>
<!-- Generator: Adobe Illustrator 23.0.3, SVG Export Plug-In . SVG Version: 6.00 Build 0)  -->
<svg version="1.1" id="Layer_1" xmlns="http://www.w3.org/2000/svg" xmlns:xlink="http://www.w3.org/1999/xlink" x="0px" y="0px"
	 viewBox="0 0 46.21 57.01" style="enable-background:new 0 0 46.21 57.01;" xml:space="preserve">
<style type="text/css">
	.st0{fill:none;stroke:#FFFFFF;stroke-width:1.75;stroke-miterlimit:10;}
</style>
<g>
	<path class="st0" d="M28.69,56.05c8.23-0.74,18-3.63,16.49-12.56s-10.97-17.17-13.69-14.3c-2.72,2.87-6.08,3.52-8.34,3.52
		c-2.28,0-5.7-0.64-8.43-3.52C12,26.32,2.54,34.57,1.03,43.49s8.26,11.82,16.49,12.56c0.62,0.06,3.1,0.08,5.58,0.08
		S28.07,56.11,28.69,56.05z"/>
	<path class="st0" d="M35.03,13.52c0,6.98-5.34,16.02-11.92,16.02S11.19,20.5,11.19,13.52S16.52,0.88,23.11,0.88
		S35.03,6.54,35.03,13.52z"/>
</g>
</svg>
