<?xml version="1.0" encoding="utf-8"?>
<!-- Generator: Adobe Illustrator 23.0.3, SVG Export Plug-In . SVG Version: 6.00 Build 0)  -->
<svg version="1.1" id="Layer_1" xmlns="http://www.w3.org/2000/svg" xmlns:xlink="http://www.w3.org/1999/xlink" x="0px" y="0px"
	 viewBox="0 0 573.36 604.94" style="enable-background:new 0 0 573.36 604.94;" xml:space="preserve">
<style type="text/css">
	.st0{fill:#E8E8E8;}
	.st1{fill:url(#SVGID_1_);}
	.st2{fill:#FFAF10;}
	.st3{fill:#EF9614;}
	.st4{fill:#FFD00D;}
	.st5{fill:#EF8318;}
	.st6{fill:#DB722C;}
	.st7{fill:#A05F33;}
	.st8{fill:#87502A;}
	.st9{fill:#7F4A26;}
	.st10{fill:#6B3C1D;}
	.st11{fill:#BF7E52;}
	.st12{fill:#AA6B3F;}
	.st13{fill:#C95E23;}
	.st14{fill:#FFFFFF;}
</style>
<g>
	<circle class="st0" cx="286.68" cy="318.26" r="286.6"/>
	
		<linearGradient id="SVGID_1_" gradientUnits="userSpaceOnUse" x1="308.1434" y1="514.5908" x2="-100.0464" y2="36.922" gradientTransform="matrix(0.9494 -0.3142 0.3142 0.9494 95.4624 85.6626)">
		<stop  offset="0" style="stop-color:#00B8FF"/>
		<stop  offset="1" style="stop-color:#0091FF"/>
	</linearGradient>
	<circle class="st1" cx="286.68" cy="318.26" r="265.97"/>
	<path class="st2" d="M337.05,409.99l-18.29-55.26c-1.96,1.23-4.09,2.24-6.37,3l-22.79,7.54c-2.29,0.76-4.61,1.21-6.91,1.39
		l18.29,55.26L337.05,409.99z"/>
	<path class="st3" d="M316.95,416.64l-18.02-54.45l-9.33,3.09c-2.29,0.76-4.61,1.21-6.91,1.39l18.29,55.26L316.95,416.64z"/>
	<path class="st4" d="M292.82,336.82c-13.81,4.57-27.88,6.41-41.63,5.82l1.68,5.08c5.09,15.38,21.69,23.73,37.08,18.64l22.79-7.54
		c15.39-5.09,23.73-21.69,18.64-37.08l-1.68-5.08C319.02,325.32,306.63,332.24,292.82,336.82z"/>
	<path class="st2" d="M285.41,338.99c-11.41,2.97-22.93,4.13-34.22,3.64l1.68,5.08c5.09,15.38,21.69,23.73,37.08,18.64l22.79-7.54
		c1.54-0.51,3.02-1.14,4.41-1.87C303.84,359.04,290.57,351.71,285.41,338.99z"/>
	<path class="st5" d="M366.1,423.48l-5.8-17.52c-0.94-2.83-4.02-4.39-6.86-3.45l-70.08,23.2c-2.83,0.94-4.39,4.02-3.45,6.86
		l5.8,17.52L366.1,423.48z"/>
	<path class="st6" d="M316.63,439.85l-5.8-17.52c-0.94-2.83,0.61-5.92,3.45-6.86l-30.92,10.23c-2.83,0.94-4.39,4.02-3.45,6.86
		l5.8,17.52L316.63,439.85z"/>
	<path class="st7" d="M452.3,492.15l-27.97-84.51c-0.94-2.83-4.02-4.39-6.86-3.45l-184.48,61.06c-2.83,0.94-4.39,4.02-3.45,6.86
		l27.97,84.51L452.3,492.15z"/>
	<path class="st8" d="M273.48,551.33l-27.97-84.51c-0.94-2.83,0.61-5.92,3.45-6.86l-15.97,5.29c-2.83,0.94-4.39,4.02-3.45,6.86
		l27.97,84.51L273.48,551.33z"/>
	<path class="st9" d="M416.47,478.85c0.94,2.83-0.61,5.92-3.45,6.86l-127.84,42.31c-2.83,0.94-5.92-0.61-6.86-3.45L264,481.29
		c-0.94-2.83,0.61-5.92,3.45-6.86l127.84-42.31c2.83-0.94,5.92,0.61,6.86,3.45L416.47,478.85z"/>
	<path class="st10" d="M298.91,517.76l-14.33-43.29c-0.94-2.83,0.61-5.92,3.45-6.86l-20.59,6.81c-2.83,0.94-4.39,4.02-3.45,6.86
		l14.33,43.29c0.94,2.83,4.02,4.39,6.86,3.45l20.59-6.81C302.94,522.15,299.85,520.59,298.91,517.76z"/>
	<path class="st11" d="M473.6,483.96l-238.07,78.8c-2.83,0.94-4.39,4.02-3.45,6.86l3.19,9.64c43.54,8.62,89.84,6.46,134.99-8.49
		s83.59-40.83,113.39-73.72l-3.19-9.64C479.52,484.57,476.43,483.02,473.6,483.96z"/>
	<path class="st12" d="M263.51,559.21c-0.94-2.83,0.61-5.92,3.45-6.86l-31.43,10.4c-2.83,0.94-4.39,4.02-3.45,6.86l3.19,9.64
		c11.95,2.37,24.12,3.91,36.4,4.61L263.51,559.21z"/>
	<path class="st2" d="M377.74,12.06L337.8,25.28l2.87,8.67c0.75,2.27-0.48,4.73-2.76,5.49l-17.29,5.72
		c-0.57,0.19-0.88,0.8-0.69,1.37l3.95,11.95L377.9,40.6c12.74,45.87,5.71,93.07-16.25,132l5.44,16.45
		c1.98,5.99,3.44,12.02,4.42,18.05c37.74-50.87,51.02-118.71,29.65-183.27C397.95,14.13,387.44,8.85,377.74,12.06z"/>
	<path class="st4" d="M145.06,262.54l-5.44-16.45c-40.85-18.14-74.65-51.83-91.8-96.24l54.03-17.88l-3.95-11.95
		c-0.19-0.57-0.8-0.88-1.37-0.69l-17.3,5.72c-2.27,0.75-4.73-0.48-5.49-2.76l-2.87-8.67l-39.94,13.22
		c-9.7,3.21-14.99,13.72-11.77,23.43c21.37,64.56,72.5,111.08,133.13,129.39C149.47,274.24,147.04,268.53,145.06,262.54z"/>
	<path class="st5" d="M96.52,119.33l47.51,143.55c20.48,61.88,87.25,95.44,149.13,74.96s95.44-87.25,74.96-149.13L320.61,45.16
		L96.52,119.33z"/>
	<g>
		<path class="st6" d="M166.41,255.48L118.56,110.9l-22.38,7.41l47.85,144.58c20.48,61.88,87.25,95.44,149.13,74.96
			c3.75-1.24,7.39-2.67,10.93-4.24C245.63,346.68,185.63,313.55,166.41,255.48z"/>
		<circle class="st6" cx="248.64" cy="203.35" r="80.34"/>
	</g>
	<path class="st13" d="M191.96,222.11c-12.84-38.8,5.55-80.4,41.45-97.62c-3.34,0.65-6.68,1.49-10.01,2.59
		c-42.12,13.94-64.96,59.39-51.02,101.51s59.39,64.96,101.51,51.02c3.32-1.1,6.51-2.42,9.58-3.89
		C244.38,283.33,204.8,260.91,191.96,222.11z"/>
	<path class="st4" d="M290.95,242.17c-1.26,0.42-2.66,0.5-4.17,0.25l-24.38-4.04c-0.37-0.06-1.13-0.02-2.07,0.29
		c-0.94,0.31-1.57,0.73-1.83,1l-17.15,17.79c-1.06,1.1-2.24,1.87-3.49,2.28c-1.91,0.63-3.88,0.42-5.55-0.6
		c-1.84-1.13-3.07-3.14-3.45-5.66l-3.69-24.43c-0.16-1.07-1.46-2.84-2.43-3.31l-22.22-10.81c-2.89-1.41-4.56-3.79-4.57-6.53
		c-0.01-2.74,1.63-5.14,4.5-6.58l22.1-11.05c0.97-0.49,2.25-2.26,2.4-3.34l3.42-24.47c0.45-3.19,2.19-5.51,4.8-6.37
		c2.6-0.86,5.39-0.04,7.65,2.25l17.34,17.6c0.76,0.77,2.85,1.44,3.91,1.25l24.33-4.31c3.17-0.56,5.91,0.38,7.54,2.59
		c1.62,2.21,1.71,5.11,0.23,7.97l-11.38,21.93c-0.5,0.96-0.49,3.15,0.02,4.11l11.62,21.81c1.2,2.25,1.42,4.6,0.61,6.6
		C294.31,240.19,292.86,241.54,290.95,242.17z"/>
	<path class="st2" d="M245.15,245.64l-3.99-26.47c-0.18-1.16-1.58-3.07-2.64-3.59l-24.07-11.72c-2.96-1.44-4.71-3.82-4.92-6.58
		l-9.07,4.54c-2.88,1.44-4.52,3.84-4.5,6.58c0.01,2.74,1.68,5.12,4.57,6.53l22.22,10.81c0.97,0.47,2.27,2.24,2.43,3.31l3.69,24.43
		c0.38,2.52,1.61,4.53,3.45,5.66c1.66,1.02,3.63,1.23,5.55,0.6c1.26-0.42,2.44-1.18,3.49-2.28l6.36-6.6
		C246.37,249.59,245.47,247.79,245.15,245.64z"/>
	<path class="st4" d="M341.7,33.61c0.94,2.83-0.61,5.92-3.45,6.86L79.56,126.09c-2.83,0.94-5.92-0.61-6.86-3.45l-9.89-29.89
		c-0.94-2.83,0.61-5.92,3.45-6.86L324.94,0.27c2.83-0.94,5.92,0.61,6.86,3.45L341.7,33.61z"/>
	<path class="st2" d="M104.14,112.24l-9.89-29.89c-0.94-2.83,0.61-5.92,3.45-6.86l-31.43,10.4c-2.83,0.94-4.39,4.02-3.45,6.86
		l9.89,29.89c0.94,2.83,4.02,4.39,6.86,3.45l31.43-10.4C108.16,116.62,105.07,115.07,104.14,112.24z"/>
	<path class="st4" d="M175.56,428.23c-1.33,0.44-2.79-0.02-3.62-1.13c-11.75-15.61-17.66-18.58-37.2-18.7
		c-1.4-0.01-2.63-0.91-3.07-2.23c-0.44-1.33,0.02-2.79,1.13-3.62c15.61-11.75,18.58-17.66,18.7-37.2c0.01-1.4,0.91-2.63,2.23-3.07
		c1.33-0.44,2.79,0.02,3.62,1.13c11.75,15.61,17.66,18.58,37.2,18.7c1.4,0.01,2.63,0.91,3.07,2.23c0.44,1.33-0.02,2.79-1.13,3.63
		c-15.61,11.75-18.58,17.66-18.7,37.2C177.79,426.55,176.89,427.79,175.56,428.23z"/>
	<g>
		<path class="st14" d="M420.41,309.45c-1.06,0.35-2.22-0.01-2.89-0.9c-9.36-12.44-14.07-14.81-29.64-14.9
			c-1.11-0.01-2.1-0.72-2.45-1.78c-0.35-1.06,0.01-2.22,0.9-2.89c12.44-9.36,14.81-14.07,14.9-29.64c0.01-1.11,0.72-2.1,1.78-2.45
			c1.06-0.35,2.22,0.01,2.89,0.9c9.36,12.44,14.07,14.81,29.64,14.9c1.11,0.01,2.1,0.72,2.45,1.78c0.35,1.06-0.01,2.22-0.9,2.89
			c-12.44,9.36-14.81,14.07-14.9,29.64C422.19,308.11,421.47,309.1,420.41,309.45z"/>
		<path class="st14" d="M366.36,465.71l-55.65,18.42c-2.85,0.94-5.92-0.6-6.86-3.45c-0.94-2.85,0.6-5.92,3.45-6.86l55.65-18.42
			c2.85-0.94,5.92,0.6,6.86,3.45C370.75,461.69,369.2,464.76,366.36,465.71z"/>
		<path class="st14" d="M360.13,488.35l-30.92,10.23c-2.85,0.94-5.92-0.6-6.86-3.45c-0.94-2.85,0.6-5.92,3.45-6.86l30.92-10.23
			c2.85-0.94,5.92,0.6,6.86,3.45C364.52,484.34,362.98,487.41,360.13,488.35z"/>
		<path class="st14" d="M160.02,146.34c-0.99,0.33-2.09-0.01-2.72-0.85c-8.81-11.71-13.24-13.94-27.9-14.02
			c-1.05-0.01-1.97-0.68-2.3-1.68c-0.33-0.99,0.01-2.09,0.85-2.72c11.71-8.81,13.94-13.24,14.02-27.9c0.01-1.05,0.68-1.97,1.68-2.3
			s2.09,0.01,2.72,0.85c8.81,11.71,13.24,13.94,27.9,14.02c1.05,0.01,1.97,0.68,2.3,1.68s-0.01,2.09-0.85,2.72
			c-11.71,8.81-13.94,13.24-14.02,27.9C161.69,145.09,161.02,146.01,160.02,146.34z"/>
	</g>
</g>
</svg>
