<?xml version="1.0" encoding="utf-8"?>
<!-- Generator: Adobe Illustrator 23.0.3, SVG Export Plug-In . SVG Version: 6.00 Build 0)  -->
<svg version="1.1" id="Layer_1" xmlns="http://www.w3.org/2000/svg" xmlns:xlink="http://www.w3.org/1999/xlink" x="0px" y="0px"
	 viewBox="0 0 115.38 117.86" style="enable-background:new 0 0 115.38 117.86;" xml:space="preserve">
<style type="text/css">
	.st0{fill:#FFAF10;}
	.st1{fill:#DBA00B;}
	.st2{fill:#FFD00D;}
	.st3{fill:#F4B70C;}
	.st4{fill:#EF8318;}
	.st5{fill:#DB722C;}
	.st6{fill:none;stroke:#000000;stroke-width:15;stroke-linecap:round;stroke-linejoin:round;stroke-miterlimit:10;}
	.st7{fill:#EF9614;}
	.st8{fill:#FFFFFF;}
</style>
<g>
	<path class="st0" d="M112.53,21.21L112.53,21.21c-2.5-3.13-6.23-4.93-10.23-4.93H90.06c-0.96,0-1.73,0.77-1.73,1.73v7.56
		c0,0.96,0.77,1.73,1.73,1.73h12.24c0.63,0,1.22,0.28,1.61,0.78c0.38,0.48,0.53,1.1,0.39,1.69c-0.94,4.09-2.9,9.89-6.97,14.36
		c-2.35,2.58-5.25,4.5-8.61,5.7c-0.56,0.2-0.98,0.68-1.11,1.26c-0.62,2.86-1.65,5.61-3.06,8.17c-0.32,0.58-0.28,1.29,0.11,1.84
		c0.33,0.46,0.86,0.73,1.41,0.73c0.1,0,0.19-0.01,0.29-0.02c7.67-1.3,14.11-4.74,19.12-10.25c4.49-4.93,7.8-11.61,9.56-19.32
		C115.93,28.35,115.02,24.33,112.53,21.21z"/>
	<g>
		<path class="st1" d="M97.86,44.53v-1c-0.17,0.2-0.34,0.41-0.52,0.6c-2.35,2.58-5.25,4.5-8.61,5.7c-0.56,0.2-0.98,0.68-1.11,1.26
			c-0.62,2.86-1.65,5.61-3.06,8.17c-0.32,0.58-0.28,1.29,0.11,1.84c0.33,0.46,0.86,0.73,1.41,0.73c0.1,0,0.19-0.01,0.29-0.02
			c2.86-0.48,5.54-1.27,8.05-2.34C96.62,54.94,97.86,49.88,97.86,44.53z"/>
		<path class="st1" d="M88.33,18.01v7.56c0,0.96,0.77,1.73,1.73,1.73h7.8V16.28h-7.8C89.1,16.28,88.33,17.05,88.33,18.01z"/>
	</g>
	<path class="st2" d="M70.69,101.66c-0.53-0.38-5.15-4.25-5.73-25.29c-0.01-0.5-0.24-0.97-0.63-1.29c-0.39-0.32-0.9-0.45-1.39-0.37
		c-1.73,0.3-3.49,0.45-5.25,0.45h0c-1.75,0-3.52-0.15-5.25-0.45c-0.49-0.09-1,0.05-1.39,0.37c-0.39,0.32-0.62,0.79-0.63,1.29
		c-0.58,21.04-5.2,24.91-5.73,25.29c-0.82,0.22-1.25,0.98-1.16,1.83c0.1,0.87,0.95,1.5,1.83,1.5h24.66c0.88,0,1.73-0.63,1.83-1.5
		C71.95,102.64,71.51,101.88,70.69,101.66z"/>
	<g>
		<path class="st0" d="M70.69,101.66c-0.53-0.38-5.15-4.25-5.73-25.29c-0.01-0.5-0.24-0.97-0.63-1.29c-0.39-0.32-0.9-0.45-1.39-0.37
			c-1.73,0.3-3.49,0.45-5.25,0.45h0c-0.55,0-1.11-0.02-1.67-0.05c0.36,0.32,0.58,0.77,0.59,1.25c0.58,21.04,5.2,24.91,5.73,25.29
			c0.82,0.22,1.25,0.98,1.16,1.83c-0.1,0.87-0.95,1.5-1.83,1.5h8.34c0.88,0,1.73-0.63,1.83-1.5
			C71.95,102.64,71.51,101.88,70.69,101.66z"/>
	</g>
	<path class="st2" d="M2.85,21.21L2.85,21.21c2.5-3.13,6.23-4.93,10.23-4.93h12.24c0.96,0,1.73,0.77,1.73,1.73v7.56
		c0,0.96-0.77,1.73-1.73,1.73H13.08c-0.63,0-1.22,0.28-1.61,0.78c-0.38,0.48-0.53,1.1-0.39,1.69c0.94,4.09,2.9,9.89,6.97,14.36
		c2.35,2.58,5.25,4.5,8.61,5.7c0.56,0.2,0.98,0.68,1.11,1.26c0.62,2.86,1.65,5.61,3.06,8.17c0.32,0.58,0.28,1.29-0.11,1.84
		c-0.33,0.46-0.86,0.73-1.41,0.73c-0.1,0-0.19-0.01-0.29-0.02c-7.67-1.3-14.11-4.74-19.12-10.25C5.4,46.61,2.1,39.93,0.33,32.23
		C-0.56,28.35,0.36,24.33,2.85,21.21z"/>
	<g>
		<path class="st3" d="M17.52,44.53v-1c0.17,0.2,0.34,0.41,0.52,0.6c2.35,2.58,5.25,4.5,8.61,5.7c0.56,0.2,0.98,0.68,1.11,1.26
			c0.62,2.86,1.65,5.61,3.06,8.17c0.32,0.58,0.28,1.29-0.11,1.84c-0.33,0.46-0.86,0.73-1.41,0.73c-0.1,0-0.19-0.01-0.29-0.02
			c-2.86-0.48-5.54-1.27-8.05-2.34C18.76,54.94,17.52,49.88,17.52,44.53z"/>
		<path class="st3" d="M27.05,18.01v7.56c0,0.96-0.77,1.73-1.73,1.73h-7.8V16.28h7.8C26.28,16.28,27.05,17.05,27.05,18.01z"/>
	</g>
	<path class="st4" d="M90.06,10H25.32c-0.96,0-1.73,0.77-1.73,1.73v32.79c0,18.8,15.3,34.1,34.1,34.1s34.1-15.3,34.1-34.1V11.73
		C91.79,10.78,91.01,10,90.06,10z"/>
	<path class="st5" d="M90.06,10h-8.07c0.96,0,1.73,0.77,1.73,1.73v32.79c0,17.44-13.15,31.85-30.06,33.86
		c1.32,0.16,2.67,0.24,4.04,0.24c18.8,0,34.1-15.3,34.1-34.1V11.73C91.79,10.78,91.01,10,90.06,10z"/>
	<path class="st6" d="M57.69,103.26"/>
	<path class="st0" d="M91.05,115.59c-2.78-8.54-9.45-14.06-17-14.06H41.32c-7.54,0-14.22,5.52-17,14.06
		c-0.17,0.53-0.08,1.1,0.25,1.55c0.33,0.45,0.85,0.71,1.4,0.71H89.4c0.55,0,1.07-0.27,1.4-0.71
		C91.13,116.7,91.22,116.12,91.05,115.59z"/>
	<path class="st7" d="M91.05,115.59c-2.78-8.54-9.45-14.06-17-14.06H60.78c7.54,0,14.22,5.52,17,14.06c0.17,0.53,0.08,1.1-0.25,1.55
		c-0.33,0.45-0.85,0.71-1.4,0.71H89.4c0.55,0,1.07-0.27,1.4-0.71C91.13,116.7,91.22,116.12,91.05,115.59z"/>
	<path class="st2" d="M92.85,0H22.52c-3.71,0-6.73,3.02-6.73,6.73c0,3.71,3.02,6.73,6.73,6.73h70.33c3.71,0,6.73-3.02,6.73-6.73
		C99.59,3.02,96.57,0,92.85,0z"/>
	<path class="st0" d="M92.85,0h-7.8c3.71,0,6.73,3.02,6.73,6.73c0,3.71-3.02,6.73-6.73,6.73h7.8c3.71,0,6.73-3.02,6.73-6.73
		C99.59,3.02,96.57,0,92.85,0z"/>
</g>
<g>
	<path class="st8" d="M65.11,52.09H48.54V48.6l5.95-6.01c1.76-1.8,2.91-3.06,3.45-3.75c0.54-0.7,0.93-1.34,1.17-1.94
		c0.24-0.59,0.36-1.21,0.36-1.85c0-0.95-0.26-1.66-0.79-2.12s-1.22-0.7-2.1-0.7c-0.92,0-1.81,0.21-2.67,0.63s-1.77,1.02-2.71,1.8
		l-2.72-3.23c1.17-0.99,2.13-1.7,2.9-2.11s1.61-0.73,2.51-0.95c0.91-0.22,1.92-0.33,3.05-0.33c1.48,0,2.79,0.27,3.92,0.81
		s2.02,1.3,2.64,2.27c0.63,0.97,0.94,2.09,0.94,3.34c0,1.09-0.19,2.12-0.58,3.07c-0.38,0.96-0.98,1.94-1.78,2.94
		c-0.8,1-2.22,2.44-4.25,4.3l-3.05,2.87v0.23h10.33V52.09z"/>
</g>
</svg>
