<?xml version="1.0" encoding="utf-8"?>
<!-- Generator: Adobe Illustrator 23.0.3, SVG Export Plug-In . SVG Version: 6.00 Build 0)  -->
<svg version="1.1" id="Layer_1" xmlns="http://www.w3.org/2000/svg" xmlns:xlink="http://www.w3.org/1999/xlink" x="0px" y="0px"
	 viewBox="0 0 115.32 117.8" style="enable-background:new 0 0 115.32 117.8;" xml:space="preserve">
<style type="text/css">
	.st0{fill:#DADCDB;}
	.st1{fill:#C6C6C6;}
	.st2{fill:#DFE1E0;}
	.st3{fill:#B9BDBE;}
	.st4{fill:#B6B7B7;}
	.st5{fill:#999D9C;}
	.st6{fill:none;stroke:#000000;stroke-width:15;stroke-linecap:round;stroke-linejoin:round;stroke-miterlimit:10;}
	.st7{fill:#ECEEED;}
	.st8{fill:#D6D8D7;}
	.st9{fill:#CED0CF;}
	.st10{fill:#BABEBF;}
	.st11{fill:#D5D7D6;}
</style>
<g>
	<path class="st0" d="M112.47,21.2L112.47,21.2c-2.5-3.13-6.22-4.93-10.23-4.93H90.01c-0.95,0-1.73,0.77-1.73,1.73v7.55
		c0,0.95,0.77,1.73,1.73,1.73h12.24c0.63,0,1.22,0.28,1.61,0.78c0.38,0.48,0.53,1.1,0.39,1.69c-0.94,4.08-2.9,9.89-6.97,14.35
		c-2.35,2.58-5.25,4.5-8.6,5.7c-0.56,0.2-0.98,0.68-1.11,1.26c-0.62,2.86-1.65,5.6-3.06,8.16c-0.32,0.58-0.28,1.29,0.11,1.83
		c0.33,0.46,0.86,0.73,1.41,0.73c0.1,0,0.19-0.01,0.29-0.02c7.67-1.3,14.1-4.74,19.11-10.24c4.49-4.93,7.8-11.61,9.56-19.31
		C115.88,28.33,114.96,24.32,112.47,21.2z"/>
	<g>
		<g>
			<path class="st1" d="M97.81,44.5v-1c-0.17,0.2-0.34,0.4-0.52,0.6c-2.35,2.58-5.25,4.5-8.6,5.7c-0.56,0.2-0.98,0.68-1.11,1.26
				c-0.62,2.86-1.65,5.6-3.06,8.16c-0.32,0.58-0.28,1.29,0.11,1.83c0.33,0.46,0.86,0.73,1.41,0.73c0.1,0,0.19-0.01,0.29-0.02
				c2.86-0.48,5.54-1.27,8.04-2.34C96.57,54.91,97.81,49.85,97.81,44.5z"/>
			<path class="st1" d="M88.28,18v7.55c0,0.95,0.77,1.73,1.73,1.73h7.8V16.27h-7.8C89.06,16.27,88.28,17.04,88.28,18z"/>
		</g>
	</g>
	<path class="st2" d="M70.66,101.61c-0.53-0.38-5.15-4.25-5.73-25.27c-0.01-0.5-0.24-0.97-0.63-1.29c-0.39-0.32-0.9-0.45-1.39-0.37
		c-1.73,0.3-3.49,0.45-5.25,0.45h0c-1.75,0-3.52-0.15-5.25-0.45c-0.49-0.09-1,0.05-1.39,0.37c-0.39,0.32-0.62,0.79-0.63,1.29
		c-0.58,21.03-5.2,24.9-5.73,25.27c-0.82,0.22-1.25,0.98-1.16,1.83c0.1,0.87,0.95,1.5,1.83,1.5h24.65c0.88,0,1.73-0.63,1.83-1.5
		C71.91,102.59,71.47,101.83,70.66,101.61z"/>
	<g>
		<g>
			<path class="st3" d="M70.66,101.61c-0.53-0.38-5.15-4.25-5.73-25.27c-0.01-0.5-0.24-0.97-0.63-1.29
				c-0.39-0.32-0.9-0.45-1.39-0.37c-1.73,0.3-3.49,0.45-5.25,0.45h0c-0.55,0-1.11-0.02-1.67-0.05c0.36,0.32,0.58,0.77,0.59,1.25
				c0.58,21.03,5.2,24.9,5.73,25.27c0.82,0.22,1.25,0.98,1.16,1.83c-0.1,0.87-0.95,1.5-1.83,1.5h8.34c0.88,0,1.73-0.63,1.83-1.5
				C71.91,102.59,71.47,101.83,70.66,101.61z"/>
		</g>
	</g>
	<path class="st0" d="M2.84,21.2L2.84,21.2c2.5-3.13,6.22-4.93,10.23-4.93h12.24c0.95,0,1.73,0.77,1.73,1.73v7.55
		c0,0.95-0.77,1.73-1.73,1.73H13.07c-0.63,0-1.22,0.28-1.61,0.78c-0.38,0.48-0.53,1.1-0.39,1.69c0.94,4.08,2.9,9.89,6.97,14.35
		c2.35,2.58,5.25,4.5,8.6,5.7c0.56,0.2,0.98,0.68,1.11,1.26c0.62,2.86,1.65,5.6,3.06,8.16c0.32,0.58,0.28,1.29-0.11,1.83
		c-0.33,0.46-0.86,0.73-1.41,0.73c-0.1,0-0.19-0.01-0.29-0.02c-7.67-1.3-14.1-4.74-19.11-10.24C5.4,46.59,2.1,39.91,0.33,32.21
		C-0.56,28.33,0.36,24.32,2.84,21.2z"/>
	<g>
		<g>
			<path class="st1" d="M17.51,44.5v-1c0.17,0.2,0.34,0.4,0.52,0.6c2.35,2.58,5.25,4.5,8.6,5.7c0.56,0.2,0.98,0.68,1.11,1.26
				c0.62,2.86,1.65,5.6,3.06,8.16c0.32,0.58,0.28,1.29-0.11,1.83c-0.33,0.46-0.86,0.73-1.41,0.73c-0.1,0-0.19-0.01-0.29-0.02
				c-2.86-0.48-5.54-1.27-8.04-2.34C18.75,54.91,17.51,49.85,17.51,44.5z"/>
			<path class="st1" d="M27.04,18v7.55c0,0.95-0.77,1.73-1.73,1.73h-7.8V16.27h7.8C26.26,16.27,27.04,17.04,27.04,18z"/>
		</g>
	</g>
	<path class="st4" d="M90.01,10h-64.7c-0.95,0-1.73,0.77-1.73,1.73V44.5c0,18.79,15.29,34.08,34.08,34.08S91.74,63.3,91.74,44.5
		V11.73C91.74,10.77,90.97,10,90.01,10z"/>
	<path class="st5" d="M90.01,10h-8.07c0.95,0,1.73,0.77,1.73,1.73V44.5c0,17.43-13.15,31.84-30.05,33.84
		c1.32,0.16,2.67,0.24,4.04,0.24c18.79,0,34.08-15.29,34.08-34.08V11.73C91.74,10.77,90.97,10,90.01,10z"/>
	<path class="st6" d="M57.66,103.21"/>
	<path class="st7" d="M72.68,40.47c1.05-1.02,1.42-2.52,0.97-3.91c-0.45-1.39-1.63-2.39-3.08-2.6l-6.37-0.93
		c-0.12-0.02-0.22-0.09-0.27-0.2l-2.85-5.77c-0.65-1.31-1.96-2.13-3.42-2.13c0,0,0,0,0,0c-1.46,0-2.77,0.81-3.42,2.13l-2.85,5.77
		c-0.05,0.11-0.15,0.18-0.27,0.19l-6.37,0.93c-1.45,0.21-2.63,1.21-3.08,2.6c-0.45,1.39-0.08,2.89,0.97,3.91l4.61,4.49
		c0.08,0.08,0.12,0.2,0.1,0.32l-1.09,6.34c-0.25,1.44,0.33,2.87,1.52,3.73c1.18,0.86,2.72,0.97,4.02,0.29l5.7-3
		c0.1-0.05,0.23-0.05,0.33,0l5.7,3c0.56,0.3,1.17,0.44,1.78,0.44c0.79,0,1.57-0.25,2.24-0.73c1.18-0.86,1.76-2.29,1.52-3.73
		l-1.09-6.34c-0.02-0.12,0.02-0.23,0.1-0.32L72.68,40.47z"/>
	<path class="st8" d="M70.57,33.97l-1.63-0.24l-8.29,7.92c-0.49,0.48-0.72,1.17-0.6,1.85l1.86,11.3l1.62,0.85
		c0.56,0.3,1.17,0.44,1.78,0.44c0.79,0,1.57-0.25,2.24-0.73c1.18-0.86,1.76-2.29,1.52-3.73l-1.09-6.34
		c-0.02-0.12,0.02-0.23,0.1-0.32l4.61-4.49c1.05-1.02,1.42-2.52,0.97-3.91C73.19,35.17,72.01,34.18,70.57,33.97z"/>
	<path class="st9" d="M91,115.54c-2.78-8.54-9.45-14.06-16.99-14.06H41.3c-7.54,0-14.21,5.52-16.99,14.06
		c-0.17,0.53-0.08,1.1,0.25,1.55c0.33,0.45,0.85,0.71,1.4,0.71h63.4c0.55,0,1.07-0.27,1.4-0.71C91.08,116.64,91.17,116.06,91,115.54
		z"/>
	<path class="st10" d="M91,115.54c-2.78-8.54-9.45-14.06-16.99-14.06H60.75c7.54,0,14.21,5.52,16.99,14.06
		c0.17,0.53,0.08,1.1-0.25,1.55c-0.33,0.45-0.85,0.71-1.4,0.71h13.27c0.55,0,1.07-0.27,1.4-0.71
		C91.08,116.64,91.17,116.06,91,115.54z"/>
	<path class="st11" d="M92.81,0h-70.3c-3.71,0-6.73,3.02-6.73,6.73c0,3.71,3.02,6.73,6.73,6.73h70.3c3.71,0,6.73-3.02,6.73-6.73
		C99.54,3.02,96.52,0,92.81,0z"/>
	<path class="st10" d="M92.81,0h-7.8c3.71,0,6.73,3.02,6.73,6.73c0,3.71-3.02,6.73-6.73,6.73h7.8c3.71,0,6.73-3.02,6.73-6.73
		C99.54,3.02,96.52,0,92.81,0z"/>
</g>
</svg>
