<?xml version="1.0" encoding="utf-8"?>
<!-- Generator: Adobe Illustrator 23.0.3, SVG Export Plug-In . SVG Version: 6.00 Build 0)  -->
<svg version="1.1" id="Layer_1" xmlns="http://www.w3.org/2000/svg" xmlns:xlink="http://www.w3.org/1999/xlink" x="0px" y="0px"
	 viewBox="0 0 88.22 84" style="enable-background:new 0 0 88.22 84;" xml:space="preserve">
<style type="text/css">
	.st0{fill:url(#SVGID_1_);}
	.st1{fill:url(#SVGID_2_);}
	.st2{fill:url(#SVGID_3_);}
	.st3{fill:url(#SVGID_4_);}
	.st4{fill:url(#SVGID_5_);}
	.st5{fill:url(#SVGID_6_);}
	.st6{fill:url(#SVGID_7_);}
</style>
<g>
	<linearGradient id="SVGID_1_" gradientUnits="userSpaceOnUse" x1="28.3119" y1="-29.6788" x2="105.2831" y2="67.7901">
		<stop  offset="0" style="stop-color:#32B1D1"/>
		<stop  offset="1" style="stop-color:#13D9A6"/>
	</linearGradient>
	<path class="st0" d="M67.6,12.52c0.04,0,0.08,0.01,0.12,0.01c0.07,0,0.13-0.01,0.2-0.01c1.74,0.04,3.13,1.45,3.13,3.19
		c0,0.79,0.64,1.43,1.43,1.43s1.43-0.64,1.43-1.43c0-2.84-1.98-5.3-4.76-5.91V8.42c0-0.79-0.64-1.43-1.43-1.43
		c-0.79,0-1.43,0.64-1.43,1.43v1.44c-2.93,0.78-4.83,3.62-4.44,6.63c0.4,3.01,2.96,5.26,6,5.26c1.76,0,3.19,1.43,3.19,3.19
		c0,1.76-1.43,3.19-3.19,3.19c-1.76,0-3.19-1.43-3.19-3.19c0-0.79-0.64-1.43-1.43-1.43c-0.79,0-1.43,0.64-1.43,1.43
		c0,2.74,1.84,5.13,4.49,5.85v1.57c0,0.79,0.64,1.43,1.43,1.43c0.79,0,1.43-0.64,1.43-1.43v-1.5c3.02-0.66,5.05-3.49,4.72-6.56
		c-0.33-3.07-2.93-5.4-6.02-5.4c-1.71,0-3.12-1.35-3.19-3.07C64.59,14.12,65.89,12.66,67.6,12.52L67.6,12.52z"/>
	<linearGradient id="SVGID_2_" gradientUnits="userSpaceOnUse" x1="1.7411" y1="-8.6958" x2="78.7122" y2="88.7731">
		<stop  offset="0" style="stop-color:#32B1D1"/>
		<stop  offset="1" style="stop-color:#13D9A6"/>
	</linearGradient>
	<path class="st1" d="M67.93,0c-8.79,0-16.3,5.74-19.11,13.42H13.35c-0.79,0-1.42,0.71-1.43,1.49l-0.34,50.14H1.47
		C0.68,65.06,0,65.63,0,66.42v6.36c0.02,5.99,4.74,10.91,10.72,11.18V84h44.13v-0.04c0.36,0.01,0.5,0.04,0.73,0.04h0.03
		c6.19-0.01,11.21-5.03,11.21-11.23V40.6c0.36,0.02,0.74,0.03,1.11,0.03c11.19,0,20.3-9.12,20.3-20.31C88.22,9.12,79.12,0,67.93,0z
		 M11.26,81.14L11.26,81.14c-4.63-0.01-8.38-3.75-8.41-8.37v-4.85h41.45v4.83c0,2.98,1.19,5.84,3.31,7.95
		c0.15,0.15,0.34,0.27,0.49,0.44H11.26z M63.96,72.77c0,4.62-3.74,8.36-8.35,8.37h-0.03c-4.63-0.01-8.39-3.75-8.42-8.39v-6.33
		c0.01-0.37-0.13-0.72-0.39-0.98c-0.26-0.26-0.61-0.4-0.98-0.38H14.44l0.33-48.78h33.26c-0.25,1.31-0.38,2.64-0.39,3.97
		c0,2.82,0.58,5.6,1.73,8.18h-13.5c-0.79,0-1.43,0.64-1.43,1.43c0,0.79,0.64,1.43,1.43,1.43h15.05c2.95,4.64,7.66,7.87,13.05,8.95
		V72.77z M67.93,37.77c-9.63,0-17.44-7.81-17.43-17.44C50.5,10.7,58.3,2.9,67.93,2.9c9.63,0,17.43,7.81,17.43,17.44
		C85.36,29.96,77.56,37.76,67.93,37.77z"/>
	<linearGradient id="SVGID_3_" gradientUnits="userSpaceOnUse" x1="3.79" y1="-10.3139" x2="80.7612" y2="87.155">
		<stop  offset="0" style="stop-color:#32B1D1"/>
		<stop  offset="1" style="stop-color:#13D9A6"/>
	</linearGradient>
	<path class="st2" d="M34.43,42.37c0,0.79,0.64,1.43,1.43,1.43h19.06c0.79,0,1.43-0.64,1.43-1.43s-0.64-1.43-1.43-1.43H35.86
		C35.07,40.94,34.43,41.58,34.43,42.37z"/>
	<linearGradient id="SVGID_4_" gradientUnits="userSpaceOnUse" x1="-2.7463" y1="-5.1521" x2="74.2282" y2="92.3209">
		<stop  offset="0" style="stop-color:#32B1D1"/>
		<stop  offset="1" style="stop-color:#13D9A6"/>
	</linearGradient>
	<path class="st3" d="M24.97,26.88c-1.75,0-3.17,1.38-3.17,3.07c0,1.69,1.42,3.07,3.17,3.07s3.17-1.38,3.17-3.07
		C28.14,28.26,26.72,26.88,24.97,26.88z"/>
	<linearGradient id="SVGID_5_" gradientUnits="userSpaceOnUse" x1="-8.7865" y1="-0.3822" x2="68.1879" y2="97.0909">
		<stop  offset="0" style="stop-color:#32B1D1"/>
		<stop  offset="1" style="stop-color:#13D9A6"/>
	</linearGradient>
	<path class="st4" d="M24.97,39.3c-1.75,0-3.17,1.38-3.17,3.07c0,1.69,1.42,3.07,3.17,3.07s3.17-1.38,3.17-3.07
		C28.14,40.67,26.72,39.3,24.97,39.3z"/>
	<linearGradient id="SVGID_6_" gradientUnits="userSpaceOnUse" x1="-14.9085" y1="4.4523" x2="62.066" y2="101.9254">
		<stop  offset="0" style="stop-color:#32B1D1"/>
		<stop  offset="1" style="stop-color:#13D9A6"/>
	</linearGradient>
	<path class="st5" d="M24.97,51.88c-1.75,0-3.17,1.38-3.17,3.07s1.42,3.07,3.17,3.07s3.17-1.38,3.17-3.07S26.72,51.88,24.97,51.88z"
		/>
	<linearGradient id="SVGID_7_" gradientUnits="userSpaceOnUse" x1="-2.2931" y1="-5.51" x2="74.678" y2="91.9589">
		<stop  offset="0" style="stop-color:#32B1D1"/>
		<stop  offset="1" style="stop-color:#13D9A6"/>
	</linearGradient>
	<path class="st6" d="M54.92,53.44H35.86c-0.79,0-1.43,0.64-1.43,1.43s0.64,1.43,1.43,1.43h19.06c0.79,0,1.43-0.64,1.43-1.43
		S55.71,53.44,54.92,53.44z"/>
</g>
</svg>
