<?xml version="1.0" encoding="utf-8"?>
<!-- Generator: Adobe Illustrator 23.0.3, SVG Export Plug-In . SVG Version: 6.00 Build 0)  -->
<svg version="1.1" id="Layer_1" xmlns="http://www.w3.org/2000/svg" xmlns:xlink="http://www.w3.org/1999/xlink" x="0px" y="0px"
	 viewBox="0 0 144.58 127.68" style="enable-background:new 0 0 144.58 127.68;" xml:space="preserve">
<style type="text/css">
	.st0{fill:#C4C4C4;}
</style>
<g>
	<path class="st0" d="M54.12,49.53c-4.76,0-8.64-3.88-8.64-8.64c0-4.76,3.88-8.64,8.64-8.64s8.64,3.88,8.64,8.64
		C62.76,45.65,58.89,49.53,54.12,49.53z"/>
	<path class="st0" d="M116.22,127.68c-6.43,0-12.63-2.27-17.93-6.57l-0.41-0.33H18.35c-4.96,0-9.58-1.89-13.02-5.33
		C1.9,111.88,0,107.24,0,102.42V18.36C0,13.4,1.89,8.77,5.33,5.33C8.9,1.9,13.54,0,18.35,0h81.67c4.96,0,9.58,1.89,13.02,5.33
		c3.43,3.57,5.33,8.2,5.33,13.02v52.86l1.31,0.17c6.22,0.79,11.97,3.53,16.62,7.91c5.31,5.31,8.26,12.44,8.26,20.03
		s-2.94,14.72-8.29,20.06C130.94,124.73,123.81,127.68,116.22,127.68z M93.35,106.12c0.14,0.81,0.4,1.7,0.78,2.64l0.05,0.11
		c0.15,0.31,0.31,0.58,0.46,0.85c0.13,0.22,0.25,0.44,0.38,0.7c0.45,0.9,0.91,1.83,1.58,2.66l0.05,0.06l0.06,0.06
		c0.18,0.19,0.37,0.4,0.55,0.62c0.24,0.28,0.48,0.55,0.72,0.79c0.26,0.26,0.52,0.55,0.78,0.85c0.3,0.34,0.6,0.68,0.91,0.98
		c4.38,4.22,10.35,6.64,16.41,6.64c6.39,0,12.37-2.46,16.83-6.92c4.47-4.63,6.92-10.55,6.92-16.69c0-6.39-2.46-12.37-6.92-16.83
		c-4.63-4.47-10.6-6.92-16.83-6.92c-6.55,0-12.53,2.46-16.85,6.94c-4.45,4.61-6.9,10.58-6.9,16.81c0,1.67,0.16,3.33,0.45,4.8
		c0.09,0.39,0.21,0.74,0.33,1.1C93.2,105.63,93.29,105.88,93.35,106.12z M16.71,116.6h76.65l-1.69-2.37
		c-0.49-0.69-0.93-1.6-1.36-2.48l-0.19-0.38v-0.08l-0.11-0.27c-0.54-1.35-0.96-2.75-1.36-4.1c-0.06-0.23-0.13-0.49-0.21-0.76
		c-0.07-0.23-0.13-0.46-0.2-0.73c-0.46-2.3-0.66-4.06-0.66-5.83c0-7.59,2.95-14.72,8.29-20.06l0.07-0.07c0.88-1,1.89-1.89,3.02-2.65
		c0.16-0.09,0.29-0.17,0.42-0.26c0.06-0.04,0.11-0.08,0.19-0.12l0.08-0.04l0.08-0.05c0.19-0.13,0.35-0.22,0.5-0.31
		c0.2-0.12,0.39-0.23,0.62-0.39l2.05-1.23c0.23-0.15,0.43-0.24,0.7-0.37c0.19-0.08,0.38-0.17,0.6-0.28l0.08-0.04l0.08-0.05
		c0.32-0.21,0.48-0.29,0.72-0.37c0.32-0.08,0.63-0.2,0.95-0.32c0.23-0.09,0.45-0.17,0.68-0.23l0.1-0.02l0.09-0.04
		c0.61-0.24,1.11-0.37,1.64-0.5l0.11-0.03l3.56-1.19L88.91,47.49L56.44,80.1c-0.42,0.38-1.03,0.61-1.66,0.61
		c-0.61,0-1.17-0.22-1.56-0.62L30.88,57.77L4.46,84.34v18.08c0,3.59,1.39,7.06,3.93,9.76c2.31,2.31,5.21,3.71,8.33,4.05V116.6z
		 M18.35,4.6c-3.67,0-7.15,1.46-9.79,4.1c-2.59,2.43-4.1,5.96-4.1,9.65v59.56l24.82-25.13c0.55-0.55,1.17-0.66,1.59-0.66
		c0.61,0,1.21,0.24,1.63,0.67l22.32,22.47l32.47-32.61c0.55-0.55,1.17-0.67,1.6-0.67c0.61,0,1.21,0.24,1.63,0.67l23.4,23.4V18.5
		c0-3.67-1.46-7.15-4.1-9.79c-2.64-2.64-6.12-4.1-9.79-4.1H18.35z"/>
	<path class="st0" d="M116.08,113.88c-1.29,0-2.3-1.01-2.3-2.3V92.47l-4.81,4.81c-0.42,0.38-1.03,0.62-1.67,0.62
		c-0.61,0-1.17-0.22-1.56-0.62c-0.83-0.91-0.85-2.38,0-3.23l8.73-8.73c0.32-0.32,0.55-0.44,0.68-0.48c0.3-0.1,0.61-0.2,0.79-0.2
		h0.28c0.16,0,0.42,0.08,0.69,0.17c0.48,0.25,0.7,0.43,0.79,0.52l8.73,8.73c0.83,0.91,0.85,2.38,0,3.23
		c-0.42,0.38-1.03,0.62-1.67,0.62c-0.61,0-1.16-0.22-1.56-0.62l-4.81-4.81v19.11C118.38,112.87,117.37,113.88,116.08,113.88z"/>
</g>
</svg>
