<?xml version="1.0" encoding="utf-8"?>
<!-- Generator: Adobe Illustrator 23.0.3, SVG Export Plug-In . SVG Version: 6.00 Build 0)  -->
<svg version="1.1" id="Layer_1" xmlns="http://www.w3.org/2000/svg" xmlns:xlink="http://www.w3.org/1999/xlink" x="0px" y="0px"
	 viewBox="0 0 59.29 45.88" style="enable-background:new 0 0 59.29 45.88;" xml:space="preserve">
<style type="text/css">
	.st0{fill:#FFFFFF;}
</style>
<g>
	<g>
		<g>
			<line class="st0" x1="22.92" y1="3.17" x2="3.17" y2="22.92"/>
			<path class="st0" d="M3.17,26.09c-0.81,0-1.63-0.31-2.24-0.93c-1.24-1.24-1.24-3.25,0-4.49L20.67,0.93
				c1.24-1.24,3.25-1.24,4.49,0c1.24,1.24,1.24,3.25,0,4.49L5.42,25.16C4.8,25.78,3.99,26.09,3.17,26.09z"/>
		</g>
		<g>
			<line class="st0" x1="22.92" y1="42.71" x2="3.17" y2="22.96"/>
			<path class="st0" d="M22.92,45.88c-0.81,0-1.63-0.31-2.25-0.93L0.93,25.21c-1.24-1.24-1.24-3.25,0-4.49
				c1.24-1.24,3.25-1.24,4.49,0l19.74,19.74c1.24,1.24,1.24,3.25,0,4.49C24.54,45.57,23.73,45.88,22.92,45.88z"/>
		</g>
		<g>
			<line class="st0" x1="56.12" y1="22.92" x2="3.34" y2="22.92"/>
			<path class="st0" d="M56.12,26.09H3.34c-1.75,0-3.17-1.42-3.17-3.17c0-1.75,1.42-3.17,3.17-3.17h52.78
				c1.75,0,3.17,1.42,3.17,3.17C59.29,24.67,57.87,26.09,56.12,26.09z"/>
		</g>
	</g>
</g>
</svg>
