<?xml version="1.0" encoding="utf-8"?>
<!-- Generator: Adobe Illustrator 23.0.3, SVG Export Plug-In . SVG Version: 6.00 Build 0)  -->
<svg version="1.1" id="Layer_1" xmlns="http://www.w3.org/2000/svg" xmlns:xlink="http://www.w3.org/1999/xlink" x="0px" y="0px"
	 viewBox="0 0 71.81 60.71" style="enable-background:new 0 0 71.81 60.71;" xml:space="preserve">
<style type="text/css">
	.st0{fill:#9CA6B7;}
</style>
<g>
	<path class="st0" d="M18.03,20.87c-5.23,0-9.48-4.25-9.48-9.48s4.25-9.48,9.48-9.48s9.48,4.25,9.48,9.48
		C27.5,16.62,23.25,20.87,18.03,20.87z M18.03,3.77c-4.2,0-7.62,3.42-7.62,7.62s3.42,7.62,7.62,7.62s7.62-3.42,7.62-7.62
		S22.23,3.77,18.03,3.77z"/>
	<path class="st0" d="M43.67,20.87c-5.23,0-9.48-4.25-9.48-9.48s4.25-9.48,9.48-9.48s9.48,4.25,9.48,9.48
		C53.15,16.62,48.9,20.87,43.67,20.87z M43.67,3.77c-4.2,0-7.62,3.42-7.62,7.62s3.42,7.62,7.62,7.62s7.62-3.42,7.62-7.62
		S47.88,3.77,43.67,3.77z"/>
	<path class="st0" d="M57.21,34.36c-0.29,0-0.56-0.13-0.73-0.36c-3.09-4-7.76-6.29-12.8-6.29c-3.24,0-6.37,0.95-9.04,2.76
		c-0.15,0.1-0.33,0.16-0.52,0.16c-0.31,0-0.6-0.15-0.77-0.41c-0.14-0.21-0.19-0.45-0.14-0.7c0.05-0.24,0.19-0.45,0.39-0.59
		c2.98-2.01,6.47-3.08,10.08-3.08c5.63,0,10.83,2.56,14.27,7.01c0.31,0.4,0.24,0.99-0.17,1.3C57.62,34.29,57.42,34.36,57.21,34.36z"
		/>
	<path class="st0" d="M35.13,44.81c-0.51,0-0.93-0.42-0.93-0.93c0-8.92-7.25-16.17-16.17-16.17S1.86,34.96,1.86,43.88
		c0,0.51-0.42,0.93-0.93,0.93S0,44.39,0,43.88c0-9.94,8.09-18.03,18.03-18.03s18.03,8.09,18.03,18.03
		C36.05,44.39,35.64,44.81,35.13,44.81z"/>
	<path class="st0" d="M60.77,58.8c-6.08,0-11.03-4.95-11.03-11.03s4.95-11.03,11.03-11.03S71.8,41.69,71.8,47.77
		S66.86,58.8,60.77,58.8z M60.77,38.59c-5.06,0-9.18,4.12-9.18,9.18s4.12,9.18,9.18,9.18s9.18-4.12,9.18-9.18
		C69.95,42.7,65.83,38.59,60.77,38.59z"/>
	<path class="st0" d="M60.77,52.58c-0.51,0-0.93-0.42-0.93-0.93v-2.96h-2.96c-0.51,0-0.93-0.42-0.93-0.93s0.42-0.93,0.93-0.93h2.96
		v-2.96c0-0.51,0.42-0.93,0.93-0.93c0.51,0,0.93,0.42,0.93,0.93v2.96h2.96c0.51,0,0.93,0.42,0.93,0.93s-0.42,0.93-0.93,0.93H61.7
		v2.96C61.7,52.16,61.29,52.58,60.77,52.58z"/>
</g>
</svg>
