<?xml version="1.0" encoding="utf-8"?>
<!-- Generator: Adobe Illustrator 23.0.3, SVG Export Plug-In . SVG Version: 6.00 Build 0)  -->
<svg version="1.1" id="Layer_1" xmlns="http://www.w3.org/2000/svg" xmlns:xlink="http://www.w3.org/1999/xlink" x="0px" y="0px"
	 viewBox="0 0 65.16 65.16" style="enable-background:new 0 0 65.16 65.16;" xml:space="preserve">
<style type="text/css">
	.st0{fill:#FFFFFF;}
</style>
<g>
	<g>
		<circle class="st0" cx="32.58" cy="48.71" r="2.17"/>
		<path class="st0" d="M32.58,65.16C14.61,65.16,0,50.55,0,32.58S14.61,0,32.58,0s32.58,14.62,32.58,32.58S50.55,65.16,32.58,65.16z
			 M32.58,3.02c-16.3,0-29.56,13.26-29.56,29.56s13.26,29.56,29.56,29.56s29.56-13.26,29.56-29.56S48.88,3.02,32.58,3.02z"/>
		<path class="st0" d="M32.58,42.32c-0.83,0-1.51-0.68-1.51-1.51v-6.58c0-0.83,0.68-1.51,1.51-1.51c3.52,0,6.39-2.87,6.39-6.39
			s-2.87-6.39-6.39-6.39s-6.39,2.87-6.39,6.39c0,0.83-0.68,1.51-1.51,1.51c-0.83,0-1.51-0.68-1.51-1.51c0-5.19,4.22-9.41,9.41-9.41
			s9.41,4.22,9.41,9.41c0,4.29-2.9,8.04-7.06,9.11l-0.84,0.22v5.15C34.09,41.64,33.41,42.32,32.58,42.32z"/>
	</g>
</g>
</svg>
