<?xml version="1.0" encoding="utf-8"?>
<!-- Generator: Adobe Illustrator 23.0.3, SVG Export Plug-In . SVG Version: 6.00 Build 0)  -->
<svg version="1.1" id="Layer_1" xmlns="http://www.w3.org/2000/svg" xmlns:xlink="http://www.w3.org/1999/xlink" x="0px" y="0px"
	 viewBox="0 0 71.81 60.71" style="enable-background:new 0 0 71.81 60.71;" xml:space="preserve">
<style type="text/css">
	.st0{fill:url(#SVGID_1_);}
	.st1{fill:url(#SVGID_2_);}
	.st2{fill:url(#SVGID_3_);}
	.st3{fill:url(#SVGID_4_);}
	.st4{fill:url(#SVGID_5_);}
	.st5{fill:url(#SVGID_6_);}
	.st6{fill:url(#SVGID_7_);}
	.st7{fill:url(#SVGID_8_);}
	.st8{fill:url(#SVGID_9_);}
	.st9{fill:url(#SVGID_10_);}
	.st10{fill:url(#SVGID_11_);}
	.st11{fill:url(#SVGID_12_);}
	.st12{fill:url(#SVGID_13_);}
	.st13{fill:url(#SVGID_14_);}
	.st14{fill:url(#SVGID_15_);}
	.st15{fill:url(#SVGID_16_);}
	.st16{fill:url(#SVGID_17_);}
	.st17{fill:url(#SVGID_18_);}
	.st18{fill:url(#SVGID_19_);}
	.st19{fill:url(#SVGID_20_);}
	.st20{fill:url(#SVGID_21_);}
	.st21{fill:url(#SVGID_22_);}
	.st22{fill:url(#SVGID_23_);}
	.st23{fill:url(#SVGID_24_);}
	.st24{fill:url(#SVGID_25_);}
	.st25{fill:url(#SVGID_26_);}
	.st26{fill:url(#SVGID_27_);}
	.st27{fill:url(#SVGID_28_);}
	.st28{fill:url(#SVGID_29_);}
	.st29{fill:url(#SVGID_30_);}
	.st30{fill:url(#SVGID_31_);}
</style>
<g>
	<linearGradient id="SVGID_1_" gradientUnits="userSpaceOnUse" x1="-23.4674" y1="-36.3233" x2="97.8042" y2="67.2628">
		<stop  offset="0" style="stop-color:#00B8FF"/>
		<stop  offset="1" style="stop-color:#0091FF"/>
	</linearGradient>
	<path class="st0" d="M53.02,12.76H7.86c-1.26,0-2.3-1.03-2.3-2.3V8.99c0-1.26,1.03-2.3,2.3-2.3l45.16,0c1.26,0,2.3,1.03,2.3,2.3
		v1.47C55.32,11.72,54.29,12.76,53.02,12.76z"/>
	<linearGradient id="SVGID_2_" gradientUnits="userSpaceOnUse" x1="-29.2453" y1="-29.957" x2="92.0262" y2="73.6291">
		<stop  offset="0" style="stop-color:#00B8FF"/>
		<stop  offset="1" style="stop-color:#0091FF"/>
	</linearGradient>
	<path class="st1" d="M63.94,33.39H18.79c-1.26,0-2.3-1.03-2.3-2.3v-1.47c0-1.26,1.03-2.3,2.3-2.3h45.16c1.26,0,2.3,1.03,2.3,2.3
		v1.47C66.24,32.35,65.21,33.39,63.94,33.39z"/>
	<linearGradient id="SVGID_3_" gradientUnits="userSpaceOnUse" x1="-44.0876" y1="-12.6742" x2="77.184" y2="90.9119">
		<stop  offset="0" style="stop-color:#00B8FF"/>
		<stop  offset="1" style="stop-color:#0091FF"/>
	</linearGradient>
	<path class="st2" d="M53.02,54.02H7.86c-1.26,0-2.3-1.03-2.3-2.3v-1.47c0-1.26,1.03-2.3,2.3-2.3h45.16c1.26,0,2.3,1.03,2.3,2.3
		v1.47C55.32,52.98,54.29,54.02,53.02,54.02z"/>
</g>
</svg>
