<?xml version="1.0" encoding="utf-8"?>
<!-- Generator: Adobe Illustrator 23.0.3, SVG Export Plug-In . SVG Version: 6.00 Build 0)  -->
<svg version="1.1" id="Layer_1" xmlns="http://www.w3.org/2000/svg" xmlns:xlink="http://www.w3.org/1999/xlink" x="0px" y="0px"
	 viewBox="0 0 71.81 60.71" style="enable-background:new 0 0 71.81 60.71;" xml:space="preserve">
<style type="text/css">
	.st0{fill:#9CA6B7;}
</style>
<g>
	<path class="st0" d="M53.02,12.76H7.86c-1.26,0-2.3-1.03-2.3-2.3V8.99c0-1.26,1.03-2.3,2.3-2.3h45.16c1.26,0,2.3,1.03,2.3,2.3v1.47
		C55.32,11.72,54.29,12.76,53.02,12.76z"/>
	<path class="st0" d="M63.94,33.39H18.79c-1.26,0-2.3-1.03-2.3-2.3v-1.47c0-1.26,1.03-2.3,2.3-2.3h45.16c1.26,0,2.3,1.03,2.3,2.3
		v1.47C66.24,32.35,65.21,33.39,63.94,33.39z"/>
	<path class="st0" d="M53.02,54.02H7.86c-1.26,0-2.3-1.03-2.3-2.3v-1.47c0-1.26,1.03-2.3,2.3-2.3h45.16c1.26,0,2.3,1.03,2.3,2.3
		v1.47C55.32,52.98,54.29,54.02,53.02,54.02z"/>
</g>
</svg>
