<?xml version="1.0" encoding="utf-8"?>
<!-- Generator: Adobe Illustrator 23.0.3, SVG Export Plug-In . SVG Version: 6.00 Build 0)  -->
<svg version="1.1" id="Layer_1" xmlns="http://www.w3.org/2000/svg" xmlns:xlink="http://www.w3.org/1999/xlink" x="0px" y="0px"
	 viewBox="0 0 55.99 70.76" style="enable-background:new 0 0 55.99 70.76;" xml:space="preserve">
<style type="text/css">
	.st0{fill:#FFFFFF;}
	.st1{fill:#EF533F;}
</style>
<g>
	<g>
		<g>
			<g>
				<path class="st0" d="M27.91,2.77c1.3,0,2.36,1.05,2.36,2.36c0,1.29-1.05,2.34-2.36,2.34c-1.29,0-2.34-1.05-2.34-2.34
					C25.57,3.82,26.63,2.77,27.91,2.77z M27.91,67.99c-2.87,0-5.28-2-5.92-4.7h11.85C33.21,65.99,30.8,67.99,27.91,67.99z"/>
			</g>
		</g>
		<g>
			<g>
				<path class="st0" d="M12.44,29.55c-0.76,0-1.38,0.62-1.38,1.38v0.03c0,0.76,0.62,1.38,1.38,1.38s1.38-0.62,1.38-1.38v-0.03
					C13.82,30.17,13.2,29.55,12.44,29.55z"/>
			</g>
		</g>
		<g>
			<g>
				<path class="st0" d="M27.92,14.1c-6.78,0-12.88,4.03-15.53,10.28c-0.3,0.7,0.03,1.51,0.73,1.81c0.18,0.07,0.36,0.11,0.54,0.11
					c0.54,0,1.05-0.32,1.27-0.84c2.22-5.22,7.31-8.59,12.98-8.59c0.76,0,1.38-0.62,1.38-1.38C29.3,14.72,28.68,14.1,27.92,14.1z"/>
			</g>
		</g>
		<path class="st0" d="M37.15,12.46c0.65,0.42,1.53,0.24,1.95-0.42c0.42-0.65,0.24-1.53-0.42-1.95l-0.02-0.01
			c-2.03-1.05-4.19-1.8-6.45-2.21c0.5-0.8,0.81-1.73,0.81-2.74c0-2.82-2.3-5.12-5.12-5.12c-2.81,0-5.11,2.3-5.11,5.12
			c0,1.01,0.29,1.95,0.81,2.74C12.7,9.89,4.43,19.48,4.43,30.96v15.97c0,2-0.87,3.95-2.36,5.32C0.76,53.45,0,55.16,0,56.94
			c0,3.5,2.86,6.35,6.36,6.35h12.82c0.67,4.23,4.32,7.47,8.73,7.47s8.07-3.23,8.74-7.47h12.82c3.5,0,6.36-2.85,6.36-6.35
			c0-1.78-0.76-3.49-2.07-4.69c-1.5-1.37-2.36-3.32-2.36-5.32V33.16c0-0.76-0.62-1.37-1.38-1.37c-0.76,0-1.38,0.61-1.38,1.37v13.77
			c0,2.78,1.18,5.46,3.26,7.36c0.74,0.68,1.17,1.64,1.17,2.65c0,1.98-1.62,3.59-3.6,3.59H6.36c-1.98,0-3.6-1.61-3.6-3.59
			c0-1.01,0.42-1.97,1.17-2.65c2.06-1.9,3.25-4.58,3.25-7.36V30.96c0-11.44,9.3-20.73,20.73-20.73c2.98,0,5.89,0.64,8.57,1.86
			C36.61,12.14,37.15,12.46,37.15,12.46z"/>
		<circle class="st1" cx="45.65" cy="17.69" r="10.34"/>
	</g>
</g>
</svg>
