<?xml version="1.0" encoding="utf-8"?>
<!-- Generator: Adobe Illustrator 23.0.3, SVG Export Plug-In . SVG Version: 6.00 Build 0)  -->
<svg version="1.1" id="Layer_1" xmlns="http://www.w3.org/2000/svg" xmlns:xlink="http://www.w3.org/1999/xlink" x="0px" y="0px"
	 viewBox="0 0 71.81 60.71" style="enable-background:new 0 0 71.81 60.71;" xml:space="preserve">
<style type="text/css">
	.st0{fill:#9CA6B7;}
</style>
<g>
	<path class="st0" d="M35.71,31.87c-3.2-0.05-5.79-1.17-7.69-3.33c-4.25-4.79-3.57-13.02-3.48-13.94c0.28-5.95,3.08-8.75,5.38-10.06
		s4.7-1.51,5.92-1.51h0.11c2.26,0.04,4.28,0.56,6,1.55c2.27,1.3,5.03,4.08,5.31,9.99c0.09,0.93,0.76,9.19-3.47,13.96
		c-1.91,2.15-4.51,3.27-7.71,3.33h-0.37V31.87z M35.83,5.14c-2.64,0-8.82,0.93-9.22,9.59l-0.01,0.1c-0.01,0-0.85,8.05,2.97,12.34
		c1.53,1.74,3.58,2.6,6.27,2.62h0.12c2.68-0.02,4.74-0.88,6.28-2.62c3.82-4.3,2.97-12.31,2.95-12.39l-0.02-0.11
		c-0.36-8.11-5.91-9.45-9.19-9.52L35.83,5.14z"/>
	<path class="st0" d="M35.92,57.66c-13.85,0-22.02-5.34-22.1-5.4c-0.19-0.12-0.33-0.28-0.4-0.48c-0.62-1.56-0.55-4.97-0.55-5
		c0.01-0.1,0.01-0.21,0.01-0.33c0.07-2.16,0.22-7.21,4.85-8.8c5.35-1.36,9.73-4.41,9.77-4.44c0.16-0.11,0.37-0.18,0.58-0.18
		c0.34,0,0.66,0.17,0.86,0.45c0.16,0.23,0.22,0.5,0.17,0.78c-0.05,0.27-0.2,0.51-0.43,0.67c-1.16,0.78-5.34,3.43-10.3,4.71
		c-3,1.07-3.35,4.12-3.43,6.9l-0.01,0.3c-0.02,1.04,0.06,2.68,0.25,3.65l0.05,0.23l0.2,0.11c1.98,1.12,9.33,4.78,20.48,4.78
		c11.2,0,18.5-3.65,20.47-4.77l0.2-0.11l0.05-0.23c0.19-0.95,0.26-2.56,0.25-3.65c-0.01-0.12-0.01-0.2-0.01-0.28
		c-0.09-2.79-0.42-5.84-3.39-6.9c-5.68-1.46-10.3-4.69-10.35-4.72c-0.47-0.33-0.59-0.98-0.26-1.45c0.2-0.28,0.52-0.45,0.86-0.45
		c0.21,0,0.42,0.07,0.59,0.19c0.04,0.03,4.47,3.08,9.69,4.41c4.71,1.6,4.86,6.66,4.93,8.82c0,0.06,0.01,0.29,0.01,0.29
		c0.02,1.29-0.06,3.82-0.52,5.03c-0.07,0.19-0.21,0.36-0.4,0.48C57.16,52.82,49.13,57.66,35.92,57.66z"/>
</g>
</svg>
