<?xml version="1.0" encoding="utf-8"?>
<!-- Generator: Adobe Illustrator 23.0.3, SVG Export Plug-In . SVG Version: 6.00 Build 0)  -->
<svg version="1.1" id="Layer_1" xmlns="http://www.w3.org/2000/svg" xmlns:xlink="http://www.w3.org/1999/xlink" x="0px" y="0px"
	 viewBox="0 0 71.81 60.71" style="enable-background:new 0 0 71.81 60.71;" xml:space="preserve">
<style type="text/css">
	.st0{fill:url(#SVGID_1_);}
	.st1{fill:url(#SVGID_2_);}
	.st2{fill:url(#SVGID_3_);}
	.st3{fill:url(#SVGID_4_);}
	.st4{fill:url(#SVGID_5_);}
	.st5{fill:url(#SVGID_6_);}
	.st6{fill:url(#SVGID_7_);}
	.st7{fill:url(#SVGID_8_);}
	.st8{fill:url(#SVGID_9_);}
	.st9{fill:url(#SVGID_10_);}
	.st10{fill:url(#SVGID_11_);}
	.st11{fill:url(#SVGID_12_);}
	.st12{fill:url(#SVGID_13_);}
	.st13{fill:url(#SVGID_14_);}
	.st14{fill:url(#SVGID_15_);}
	.st15{fill:url(#SVGID_16_);}
	.st16{fill:url(#SVGID_17_);}
	.st17{fill:url(#SVGID_18_);}
	.st18{fill:url(#SVGID_19_);}
	.st19{fill:url(#SVGID_20_);}
	.st20{fill:url(#SVGID_21_);}
	.st21{fill:url(#SVGID_22_);}
	.st22{fill:url(#SVGID_23_);}
	.st23{fill:url(#SVGID_24_);}
	.st24{fill:url(#SVGID_25_);}
	.st25{fill:url(#SVGID_26_);}
	.st26{fill:url(#SVGID_27_);}
	.st27{fill:url(#SVGID_28_);}
</style>
<text transform="matrix(1 0 0 1 -259.341 -407.1119)" style="fill:#0091FF; font-family:'OpenSans-Semibold'; font-size:26px;">Lobby</text>
<text transform="matrix(1 0 0 1 17.1024 -407.1119)" style="fill:#9CA6B7; font-family:'OpenSans-Semibold'; font-size:26px;">Stats</text>
<g>
	<linearGradient id="SVGID_1_" gradientUnits="userSpaceOnUse" x1="645.1604" y1="-254.901" x2="668.0653" y2="-254.901">
		<stop  offset="0" style="stop-color:#00B8FF"/>
		<stop  offset="1" style="stop-color:#0091FF"/>
	</linearGradient>
	<path class="st0" d="M656.42-240.49c-3.2-0.05-5.79-1.17-7.69-3.33c-4.25-4.79-3.57-13.02-3.48-13.94
		c0.28-5.95,3.08-8.75,5.38-10.06c2.3-1.31,4.7-1.51,5.92-1.51h0.11c2.26,0.04,4.28,0.56,6,1.55c2.27,1.3,5.03,4.08,5.31,9.99
		c0.09,0.93,0.76,9.19-3.47,13.96c-1.91,2.15-4.51,3.27-7.71,3.33H656.42z M656.54-267.22c-2.64,0-8.82,0.93-9.22,9.59l-0.01,0.1
		c-0.01,0-0.85,8.05,2.97,12.34c1.53,1.74,3.58,2.6,6.27,2.62h0.12c2.68-0.02,4.74-0.88,6.28-2.62c3.82-4.3,2.97-12.31,2.95-12.39
		l-0.02-0.11c-0.36-8.11-5.91-9.45-9.19-9.52L656.54-267.22z"/>
	<linearGradient id="SVGID_2_" gradientUnits="userSpaceOnUse" x1="633.5674" y1="-227.0146" x2="679.6583" y2="-227.0146">
		<stop  offset="0" style="stop-color:#00B8FF"/>
		<stop  offset="1" style="stop-color:#0091FF"/>
	</linearGradient>
	<path class="st1" d="M656.63-214.7c-13.85,0-22.02-5.34-22.1-5.4c-0.19-0.12-0.33-0.28-0.4-0.48c-0.62-1.56-0.55-4.97-0.55-5
		c0.01-0.1,0.01-0.21,0.01-0.33c0.07-2.16,0.22-7.21,4.85-8.8c5.35-1.36,9.73-4.41,9.77-4.44c0.16-0.11,0.37-0.18,0.58-0.18
		c0.34,0,0.66,0.17,0.86,0.45c0.16,0.23,0.22,0.5,0.17,0.78c-0.05,0.27-0.2,0.51-0.43,0.67c-1.16,0.78-5.34,3.43-10.3,4.71
		c-3,1.07-3.35,4.12-3.43,6.9l-0.01,0.3c-0.02,1.04,0.06,2.68,0.25,3.65l0.05,0.23l0.2,0.11c1.98,1.12,9.33,4.78,20.48,4.78
		c11.2,0,18.5-3.65,20.47-4.77l0.2-0.11l0.05-0.23c0.19-0.95,0.26-2.56,0.25-3.65c-0.01-0.12-0.01-0.2-0.01-0.28
		c-0.09-2.79-0.42-5.84-3.39-6.9c-5.68-1.46-10.3-4.69-10.35-4.72c-0.47-0.33-0.59-0.98-0.26-1.45c0.2-0.28,0.52-0.45,0.86-0.45
		c0.21,0,0.42,0.07,0.59,0.19c0.04,0.03,4.47,3.08,9.69,4.41c4.71,1.6,4.86,6.66,4.93,8.82c0,0.06,0.01,0.29,0.01,0.29
		c0.02,1.29-0.06,3.82-0.52,5.03c-0.07,0.19-0.21,0.36-0.4,0.48C677.87-219.54,669.84-214.7,656.63-214.7z"/>
</g>
<text transform="matrix(1 0 0 1 604.8856 -407.1119)" style="fill:#9CA6B7; font-family:'OpenSans-Semibold'; font-size:26px;">Profile</text>
<g>
	<linearGradient id="SVGID_3_" gradientUnits="userSpaceOnUse" x1="901.1684" y1="-262.1025" x2="920.123" y2="-262.1025">
		<stop  offset="0" style="stop-color:#00B8FF"/>
		<stop  offset="1" style="stop-color:#0091FF"/>
	</linearGradient>
	<path class="st2" d="M910.65-252.63c-5.23,0-9.48-4.25-9.48-9.48c0-5.23,4.25-9.48,9.48-9.48s9.48,4.25,9.48,9.48
		C920.12-256.88,915.87-252.63,910.65-252.63z M910.65-269.72c-4.2,0-7.62,3.42-7.62,7.62c0,4.2,3.42,7.62,7.62,7.62
		s7.62-3.42,7.62-7.62C918.27-266.31,914.85-269.72,910.65-269.72z"/>
	<linearGradient id="SVGID_4_" gradientUnits="userSpaceOnUse" x1="926.8173" y1="-262.1025" x2="945.771" y2="-262.1025">
		<stop  offset="0" style="stop-color:#00B8FF"/>
		<stop  offset="1" style="stop-color:#0091FF"/>
	</linearGradient>
	<path class="st3" d="M936.29-252.63c-5.23,0-9.48-4.25-9.48-9.48c0-5.23,4.25-9.48,9.48-9.48s9.48,4.25,9.48,9.48
		C945.77-256.88,941.52-252.63,936.29-252.63z M936.29-269.72c-4.2,0-7.62,3.42-7.62,7.62c0,4.2,3.42,7.62,7.62,7.62
		s7.62-3.42,7.62-7.62C943.92-266.31,940.5-269.72,936.29-269.72z"/>
	<linearGradient id="SVGID_5_" gradientUnits="userSpaceOnUse" x1="925.8059" y1="-243.3872" x2="950.7589" y2="-243.3872">
		<stop  offset="0" style="stop-color:#00B8FF"/>
		<stop  offset="1" style="stop-color:#0091FF"/>
	</linearGradient>
	<path class="st4" d="M949.83-239.13c-0.29,0-0.56-0.13-0.73-0.36c-3.09-4-7.76-6.29-12.8-6.29c-3.24,0-6.37,0.95-9.04,2.76
		c-0.15,0.1-0.33,0.16-0.52,0.16c-0.31,0-0.6-0.15-0.77-0.41c-0.14-0.21-0.19-0.45-0.14-0.7c0.05-0.24,0.19-0.45,0.39-0.59
		c2.98-2.01,6.47-3.08,10.08-3.08c5.63,0,10.83,2.56,14.27,7.01c0.31,0.4,0.24,0.99-0.17,1.3
		C950.24-239.2,950.04-239.13,949.83-239.13z"/>
	<linearGradient id="SVGID_6_" gradientUnits="userSpaceOnUse" x1="892.619" y1="-238.1639" x2="928.6724" y2="-238.1639">
		<stop  offset="0" style="stop-color:#00B8FF"/>
		<stop  offset="1" style="stop-color:#0091FF"/>
	</linearGradient>
	<path class="st5" d="M927.74-228.69c-0.51,0-0.93-0.42-0.93-0.93c0-8.92-7.25-16.17-16.17-16.17s-16.17,7.25-16.17,16.17
		c0,0.51-0.42,0.93-0.93,0.93c-0.51,0-0.93-0.42-0.93-0.93c0-9.94,8.09-18.03,18.03-18.03s18.03,8.09,18.03,18.03
		C928.67-229.1,928.26-228.69,927.74-228.69z"/>
	<linearGradient id="SVGID_7_" gradientUnits="userSpaceOnUse" x1="942.3615" y1="-225.7285" x2="964.4241" y2="-225.7285">
		<stop  offset="0" style="stop-color:#00B8FF"/>
		<stop  offset="1" style="stop-color:#0091FF"/>
	</linearGradient>
	<path class="st6" d="M953.39-214.7c-6.08,0-11.03-4.95-11.03-11.03s4.95-11.03,11.03-11.03c6.08,0,11.03,4.95,11.03,11.03
		S959.48-214.7,953.39-214.7z M953.39-234.9c-5.06,0-9.18,4.12-9.18,9.18c0,5.06,4.12,9.18,9.18,9.18c5.06,0,9.18-4.12,9.18-9.18
		C962.57-230.79,958.45-234.9,953.39-234.9z"/>
	<linearGradient id="SVGID_8_" gradientUnits="userSpaceOnUse" x1="948.5792" y1="-225.7284" x2="958.2064" y2="-225.7284">
		<stop  offset="0" style="stop-color:#00B8FF"/>
		<stop  offset="1" style="stop-color:#0091FF"/>
	</linearGradient>
	<path class="st7" d="M953.39-220.91c-0.51,0-0.93-0.42-0.93-0.93v-2.96h-2.96c-0.51,0-0.93-0.42-0.93-0.93s0.42-0.93,0.93-0.93
		h2.96v-2.96c0-0.51,0.42-0.93,0.93-0.93c0.51,0,0.93,0.42,0.93,0.93v2.96h2.96c0.51,0,0.93,0.42,0.93,0.93s-0.42,0.93-0.93,0.93
		h-2.96v2.96C954.32-221.33,953.9-220.91,953.39-220.91z"/>
</g>
<text transform="matrix(1 0 0 1 875.2 -407.1119)" style="fill:#9CA6B7; font-family:'OpenSans-Semibold'; font-size:26px;">Friends</text>
<g>
	<linearGradient id="SVGID_9_" gradientUnits="userSpaceOnUse" x1="181.7165" y1="13.3557" x2="241.1161" y2="75.9661">
		<stop  offset="0" style="stop-color:#00B8FF"/>
		<stop  offset="1" style="stop-color:#0091FF"/>
	</linearGradient>
	<path class="st8" d="M196.33,60.71c-0.43,0-0.78-0.35-0.78-0.78s0.35-0.78,0.78-0.78h59.15c0.43,0,0.78,0.35,0.78,0.78
		s-0.35,0.78-0.78,0.78H196.33z"/>
	<linearGradient id="SVGID_10_" gradientUnits="userSpaceOnUse" x1="172.8818" y1="21.7374" x2="232.2813" y2="84.3478">
		<stop  offset="0" style="stop-color:#00B8FF"/>
		<stop  offset="1" style="stop-color:#0091FF"/>
	</linearGradient>
	<path class="st9" d="M198.9,60.71c-0.43,0-0.78-0.35-0.78-0.78V46.52c0-0.43,0.35-0.78,0.78-0.78h7.72c0.43,0,0.78,0.35,0.78,0.78
		v13.41c0,0.43-0.35,0.78-0.78,0.78H198.9z M199.68,59.15h6.16l0-11.85h-6.16V59.15z"/>
	<linearGradient id="SVGID_11_" gradientUnits="userSpaceOnUse" x1="184.213" y1="10.9872" x2="243.6126" y2="73.5976">
		<stop  offset="0" style="stop-color:#00B8FF"/>
		<stop  offset="1" style="stop-color:#0091FF"/>
	</linearGradient>
	<path class="st10" d="M214.33,60.71c-0.43,0-0.78-0.35-0.78-0.78V33.67c0-0.43,0.35-0.78,0.78-0.78h7.71
		c0.43,0,0.78,0.35,0.78,0.78v26.26c0,0.43-0.35,0.78-0.78,0.78H214.33z M215.11,59.15h6.16V34.45h-6.16V59.15z"/>
	<linearGradient id="SVGID_12_" gradientUnits="userSpaceOnUse" x1="191.05" y1="4.5009" x2="250.4496" y2="67.1113">
		<stop  offset="0" style="stop-color:#00B8FF"/>
		<stop  offset="1" style="stop-color:#0091FF"/>
	</linearGradient>
	<path class="st11" d="M229.76,60.71c-0.43,0-0.78-0.35-0.78-0.78V38.81c0-0.43,0.35-0.78,0.78-0.78h7.72
		c0.43,0,0.78,0.35,0.78,0.78v21.12c0,0.43-0.35,0.78-0.78,0.78H229.76z M230.54,59.15h6.16V39.59h-6.16V59.15z"/>
	<linearGradient id="SVGID_13_" gradientUnits="userSpaceOnUse" x1="203.0234" y1="-6.8585" x2="262.4229" y2="55.7519">
		<stop  offset="0" style="stop-color:#00B8FF"/>
		<stop  offset="1" style="stop-color:#0091FF"/>
	</linearGradient>
	<path class="st12" d="M245.19,60.71c-0.43,0-0.78-0.35-0.78-0.78V23.38c0-0.43,0.35-0.78,0.78-0.78h7.71
		c0.43,0,0.78,0.35,0.78,0.78v36.55c0,0.43-0.35,0.78-0.78,0.78H245.19z M245.97,59.15h6.16V24.16h-6.16V59.15z"/>
	<linearGradient id="SVGID_14_" gradientUnits="userSpaceOnUse" x1="185.5863" y1="9.6843" x2="244.9859" y2="72.2947">
		<stop  offset="0" style="stop-color:#00B8FF"/>
		<stop  offset="1" style="stop-color:#0091FF"/>
	</linearGradient>
	<path class="st13" d="M202.76,32.42c-2.56,0-4.64-2.08-4.64-4.64s2.08-4.64,4.64-4.64c2.56,0,4.64,2.08,4.64,4.64
		S205.31,32.42,202.76,32.42z M202.76,24.71c-1.7,0-3.08,1.38-3.08,3.08c0,1.7,1.38,3.08,3.08,3.08s3.08-1.38,3.08-3.08
		C205.83,26.09,204.45,24.71,202.76,24.71z"/>
	<linearGradient id="SVGID_15_" gradientUnits="userSpaceOnUse" x1="200.1277" y1="-4.1114" x2="259.5273" y2="58.499">
		<stop  offset="0" style="stop-color:#00B8FF"/>
		<stop  offset="1" style="stop-color:#0091FF"/>
	</linearGradient>
	<path class="st14" d="M218.19,19.56c-2.56,0-4.64-2.08-4.64-4.64s2.08-4.64,4.64-4.64c2.56,0,4.64,2.08,4.64,4.64
		S220.74,19.56,218.19,19.56z M218.19,11.85c-1.7,0-3.08,1.38-3.08,3.08c0,1.7,1.38,3.08,3.08,3.08s3.08-1.38,3.08-3.08
		C221.27,13.23,219.88,11.85,218.19,11.85z"/>
	<linearGradient id="SVGID_16_" gradientUnits="userSpaceOnUse" x1="205.6807" y1="-9.3796" x2="265.0803" y2="53.2308">
		<stop  offset="0" style="stop-color:#00B8FF"/>
		<stop  offset="1" style="stop-color:#0091FF"/>
	</linearGradient>
	<path class="st15" d="M233.62,24.71c-2.56,0-4.64-2.08-4.64-4.64s2.08-4.64,4.64-4.64s4.64,2.08,4.64,4.64
		S236.18,24.71,233.62,24.71z M233.62,16.99c-1.7,0-3.08,1.38-3.08,3.08c0,1.7,1.38,3.08,3.08,3.08s3.08-1.38,3.08-3.08
		C236.7,18.37,235.32,16.99,233.62,16.99z"/>
	<linearGradient id="SVGID_17_" gradientUnits="userSpaceOnUse" x1="221.5063" y1="-24.3936" x2="280.9059" y2="38.2168">
		<stop  offset="0" style="stop-color:#00B8FF"/>
		<stop  offset="1" style="stop-color:#0091FF"/>
	</linearGradient>
	<path class="st16" d="M249.05,9.27c-2.56,0-4.64-2.08-4.64-4.64S246.49,0,249.05,0c2.56,0,4.64,2.08,4.64,4.64
		S251.61,9.27,249.05,9.27z M249.05,1.56c-1.7,0-3.08,1.38-3.08,3.08c0,1.7,1.38,3.08,3.08,3.08s3.08-1.38,3.08-3.08
		C252.13,2.94,250.75,1.56,249.05,1.56z"/>
	<linearGradient id="SVGID_18_" gradientUnits="userSpaceOnUse" x1="213.5951" y1="-16.8881" x2="272.9947" y2="45.7223">
		<stop  offset="0" style="stop-color:#00B8FF"/>
		<stop  offset="1" style="stop-color:#0091FF"/>
	</linearGradient>
	<path class="st17" d="M236.35,18.12c-0.21,0-0.4-0.08-0.55-0.23c-0.15-0.15-0.23-0.34-0.23-0.55c0-0.21,0.08-0.4,0.23-0.55
		l9.98-9.98c0.15-0.15,0.34-0.23,0.55-0.23s0.4,0.08,0.55,0.23c0.15,0.15,0.23,0.34,0.23,0.55c0,0.21-0.08,0.4-0.23,0.55l-9.98,9.98
		C236.75,18.04,236.55,18.12,236.35,18.12z"/>
	<linearGradient id="SVGID_19_" gradientUnits="userSpaceOnUse" x1="203.1381" y1="-6.9673" x2="262.5377" y2="55.6431">
		<stop  offset="0" style="stop-color:#00B8FF"/>
		<stop  offset="1" style="stop-color:#0091FF"/>
	</linearGradient>
	<path class="st18" d="M230.16,19.12c-0.07,0-0.14-0.01-0.21-0.03l-8.26-2.36c-0.41-0.12-0.65-0.55-0.53-0.96
		c0.1-0.34,0.39-0.57,0.74-0.57c0.07,0,0.15,0.01,0.22,0.03l8.26,2.36c0.2,0.06,0.37,0.19,0.47,0.37c0.1,0.18,0.12,0.39,0.07,0.59
		C230.81,18.88,230.5,19.12,230.16,19.12z"/>
	<linearGradient id="SVGID_20_" gradientUnits="userSpaceOnUse" x1="192.8624" y1="2.7814" x2="252.262" y2="65.3918">
		<stop  offset="0" style="stop-color:#00B8FF"/>
		<stop  offset="1" style="stop-color:#0091FF"/>
	</linearGradient>
	<path class="st19" d="M205.48,25.84c-0.24,0-0.46-0.11-0.61-0.29c-0.13-0.16-0.19-0.37-0.17-0.57c0.02-0.21,0.13-0.39,0.29-0.52
		l9.69-7.73c0.14-0.11,0.31-0.17,0.48-0.17c0.24,0,0.46,0.11,0.61,0.29c0.27,0.34,0.21,0.83-0.12,1.1l-9.7,7.73
		C205.83,25.78,205.66,25.84,205.48,25.84z"/>
</g>
<g>
	<linearGradient id="SVGID_21_" gradientUnits="userSpaceOnUse" x1="76.4628" y1="48.0832" x2="11.6973" y2="-1.0133">
		<stop  offset="0" style="stop-color:#00B8FF"/>
		<stop  offset="1" style="stop-color:#0091FF"/>
	</linearGradient>
	<path class="st20" d="M35.71,31.87c-3.2-0.05-5.79-1.17-7.69-3.33c-4.25-4.79-3.57-13.02-3.48-13.94
		c0.28-5.95,3.08-8.75,5.38-10.06c2.3-1.31,4.7-1.51,5.92-1.51h0.11c2.26,0.04,4.28,0.56,6,1.55c2.27,1.3,5.03,4.08,5.31,9.99
		c0.09,0.93,0.76,9.19-3.47,13.96c-1.91,2.15-4.51,3.27-7.71,3.33H35.71z M35.83,5.14c-2.64,0-8.82,0.93-9.22,9.59l-0.01,0.1
		c-0.01,0-0.85,8.05,2.97,12.34c1.53,1.74,3.58,2.6,6.27,2.62h0.12c2.68-0.02,4.74-0.88,6.28-2.62c3.82-4.3,2.97-12.31,2.95-12.39
		l-0.02-0.11c-0.36-8.11-5.91-9.45-9.19-9.52L35.83,5.14z"/>
	<linearGradient id="SVGID_22_" gradientUnits="userSpaceOnUse" x1="62.5477" y1="66.4393" x2="-2.2178" y2="17.3429">
		<stop  offset="0" style="stop-color:#00B8FF"/>
		<stop  offset="1" style="stop-color:#0091FF"/>
	</linearGradient>
	<path class="st21" d="M35.92,57.66c-13.85,0-22.02-5.34-22.1-5.4c-0.19-0.12-0.33-0.28-0.4-0.48c-0.62-1.56-0.55-4.97-0.55-5
		c0.01-0.1,0.01-0.21,0.01-0.33c0.07-2.16,0.22-7.21,4.85-8.8c5.35-1.36,9.73-4.41,9.77-4.44c0.16-0.11,0.37-0.18,0.58-0.18
		c0.34,0,0.66,0.17,0.86,0.45c0.16,0.23,0.22,0.5,0.17,0.78c-0.05,0.27-0.2,0.51-0.43,0.67c-1.16,0.78-5.34,3.43-10.3,4.71
		c-3,1.07-3.35,4.12-3.43,6.9l-0.01,0.3c-0.02,1.04,0.06,2.68,0.25,3.65l0.05,0.23l0.2,0.11c1.98,1.12,9.33,4.78,20.48,4.78
		c11.2,0,18.5-3.65,20.47-4.77l0.2-0.11l0.05-0.23c0.19-0.95,0.26-2.56,0.25-3.65c-0.01-0.12-0.01-0.2-0.01-0.28
		c-0.09-2.79-0.42-5.84-3.39-6.9c-5.68-1.46-10.3-4.69-10.35-4.72c-0.47-0.33-0.59-0.98-0.26-1.45c0.2-0.28,0.52-0.45,0.86-0.45
		c0.21,0,0.42,0.07,0.59,0.19c0.04,0.03,4.47,3.08,9.69,4.41c4.71,1.6,4.86,6.66,4.93,8.82c0,0.06,0.01,0.29,0.01,0.29
		c0.02,1.29-0.06,3.82-0.52,5.03c-0.07,0.19-0.21,0.36-0.4,0.48C57.16,52.82,49.13,57.66,35.92,57.66z"/>
</g>
<g>
	<linearGradient id="SVGID_23_" gradientUnits="userSpaceOnUse" x1="-122.9421" y1="-14.6521" x2="-25.434" y2="60.1041">
		<stop  offset="0" style="stop-color:#00B8FF"/>
		<stop  offset="1" style="stop-color:#0091FF"/>
	</linearGradient>
	<path class="st22" d="M-88.97,20.87c-5.23,0-9.48-4.25-9.48-9.48c0-5.23,4.25-9.48,9.48-9.48c5.23,0,9.48,4.25,9.48,9.48
		C-79.5,16.62-83.75,20.87-88.97,20.87z M-88.97,3.77c-4.2,0-7.62,3.42-7.62,7.62s3.42,7.62,7.62,7.62c4.2,0,7.62-3.42,7.62-7.62
		S-84.77,3.77-88.97,3.77z"/>
	<linearGradient id="SVGID_24_" gradientUnits="userSpaceOnUse" x1="-113.4475" y1="-27.0364" x2="-15.9393" y2="47.7198">
		<stop  offset="0" style="stop-color:#00B8FF"/>
		<stop  offset="1" style="stop-color:#0091FF"/>
	</linearGradient>
	<path class="st23" d="M-63.33,20.87c-5.23,0-9.48-4.25-9.48-9.48c0-5.23,4.25-9.48,9.48-9.48s9.48,4.25,9.48,9.48
		C-53.85,16.62-58.1,20.87-63.33,20.87z M-63.33,3.77c-4.2,0-7.62,3.42-7.62,7.62s3.42,7.62,7.62,7.62s7.62-3.42,7.62-7.62
		S-59.12,3.77-63.33,3.77z"/>
	<linearGradient id="SVGID_25_" gradientUnits="userSpaceOnUse" x1="-122.2764" y1="-15.5204" x2="-24.7683" y2="59.2358">
		<stop  offset="0" style="stop-color:#00B8FF"/>
		<stop  offset="1" style="stop-color:#0091FF"/>
	</linearGradient>
	<path class="st24" d="M-49.79,34.36c-0.29,0-0.56-0.13-0.73-0.36c-3.09-4-7.76-6.29-12.8-6.29c-3.24,0-6.37,0.95-9.04,2.76
		c-0.15,0.1-0.33,0.16-0.52,0.16c-0.31,0-0.6-0.15-0.77-0.41c-0.14-0.21-0.19-0.45-0.14-0.7c0.05-0.24,0.19-0.45,0.39-0.59
		c2.98-2.01,6.47-3.08,10.08-3.08c5.63,0,10.83,2.56,14.27,7.01c0.31,0.4,0.24,0.99-0.17,1.3C-49.38,34.29-49.58,34.36-49.79,34.36z
		"/>
	<linearGradient id="SVGID_26_" gradientUnits="userSpaceOnUse" x1="-136.5943" y1="3.1551" x2="-39.0862" y2="77.9114">
		<stop  offset="0" style="stop-color:#00B8FF"/>
		<stop  offset="1" style="stop-color:#0091FF"/>
	</linearGradient>
	<path class="st25" d="M-71.87,44.81c-0.51,0-0.93-0.42-0.93-0.93c0-8.92-7.25-16.17-16.17-16.17s-16.17,7.25-16.17,16.17
		c0,0.51-0.42,0.93-0.93,0.93c-0.51,0-0.93-0.42-0.93-0.93c0-9.94,8.09-18.03,18.03-18.03s18.03,8.09,18.03,18.03
		C-70.95,44.39-71.36,44.81-71.87,44.81z"/>
	<linearGradient id="SVGID_27_" gradientUnits="userSpaceOnUse" x1="-124.6809" y1="-12.3841" x2="-27.1728" y2="62.3721">
		<stop  offset="0" style="stop-color:#00B8FF"/>
		<stop  offset="1" style="stop-color:#0091FF"/>
	</linearGradient>
	<path class="st26" d="M-46.23,58.8c-6.08,0-11.03-4.95-11.03-11.03s4.95-11.03,11.03-11.03s11.03,4.95,11.03,11.03
		S-40.14,58.8-46.23,58.8z M-46.23,38.59c-5.06,0-9.18,4.12-9.18,9.18c0,5.06,4.12,9.18,9.18,9.18s9.18-4.12,9.18-9.18
		C-37.05,42.7-41.17,38.59-46.23,38.59z"/>
	<linearGradient id="SVGID_28_" gradientUnits="userSpaceOnUse" x1="-124.681" y1="-12.384" x2="-27.1729" y2="62.3722">
		<stop  offset="0" style="stop-color:#00B8FF"/>
		<stop  offset="1" style="stop-color:#0091FF"/>
	</linearGradient>
	<path class="st27" d="M-46.23,52.58c-0.51,0-0.93-0.42-0.93-0.93v-2.96h-2.96c-0.51,0-0.93-0.42-0.93-0.93s0.42-0.93,0.93-0.93
		h2.96v-2.96c0-0.51,0.42-0.93,0.93-0.93c0.51,0,0.93,0.42,0.93,0.93v2.96h2.96c0.51,0,0.93,0.42,0.93,0.93s-0.42,0.93-0.93,0.93
		h-2.96v2.96C-45.3,52.16-45.71,52.58-46.23,52.58z"/>
</g>
</svg>
