<?xml version="1.0" encoding="utf-8"?>
<!-- Generator: Adobe Illustrator 23.0.3, SVG Export Plug-In . SVG Version: 6.00 Build 0)  -->
<svg version="1.1" id="Layer_1" xmlns="http://www.w3.org/2000/svg" xmlns:xlink="http://www.w3.org/1999/xlink" x="0px" y="0px"
	 viewBox="0 0 71.81 60.71" style="enable-background:new 0 0 71.81 60.71;" xml:space="preserve">
<style type="text/css">
	.st0{fill:url(#SVGID_1_);}
	.st1{fill:url(#SVGID_2_);}
	.st2{fill:url(#SVGID_3_);}
	.st3{fill:url(#SVGID_4_);}
	.st4{fill:url(#SVGID_5_);}
	.st5{fill:url(#SVGID_6_);}
	.st6{fill:url(#SVGID_7_);}
	.st7{fill:url(#SVGID_8_);}
	.st8{fill:url(#SVGID_9_);}
	.st9{fill:url(#SVGID_10_);}
	.st10{fill:url(#SVGID_11_);}
	.st11{fill:url(#SVGID_12_);}
</style>
<g>
	
		<linearGradient id="SVGID_1_" gradientUnits="userSpaceOnUse" x1="-8.2821" y1="48.6456" x2="51.1175" y2="-13.9648" gradientTransform="matrix(1 0 0 -1 0 62)">
		<stop  offset="0" style="stop-color:#00B8FF"/>
		<stop  offset="1" style="stop-color:#0091FF"/>
	</linearGradient>
	<path class="st0" d="M6.33,60.71c-0.43,0-0.78-0.35-0.78-0.78s0.35-0.78,0.78-0.78h59.15c0.43,0,0.78,0.35,0.78,0.78
		s-0.35,0.78-0.78,0.78H6.33z"/>
	
		<linearGradient id="SVGID_2_" gradientUnits="userSpaceOnUse" x1="-17.1154" y1="40.2653" x2="42.2841" y2="-22.3451" gradientTransform="matrix(1 0 0 -1 0 62)">
		<stop  offset="0" style="stop-color:#00B8FF"/>
		<stop  offset="1" style="stop-color:#0091FF"/>
	</linearGradient>
	<path class="st1" d="M8.9,60.71c-0.43,0-0.78-0.35-0.78-0.78V46.52c0-0.43,0.35-0.78,0.78-0.78h7.72c0.43,0,0.78,0.35,0.78,0.78
		v13.41c0,0.43-0.35,0.78-0.78,0.78H8.9z M9.68,59.15h6.16V47.3H9.68V59.15z"/>
	
		<linearGradient id="SVGID_3_" gradientUnits="userSpaceOnUse" x1="-5.7892" y1="51.0107" x2="53.6104" y2="-11.5997" gradientTransform="matrix(1 0 0 -1 0 62)">
		<stop  offset="0" style="stop-color:#00B8FF"/>
		<stop  offset="1" style="stop-color:#0091FF"/>
	</linearGradient>
	<path class="st2" d="M24.33,60.71c-0.43,0-0.78-0.35-0.78-0.78V33.67c0-0.43,0.35-0.78,0.78-0.78h7.71c0.43,0,0.78,0.35,0.78,0.78
		v26.26c0,0.43-0.35,0.78-0.78,0.78H24.33z M25.11,59.15h6.16v-24.7h-6.16V59.15z"/>
	
		<linearGradient id="SVGID_4_" gradientUnits="userSpaceOnUse" x1="1.051" y1="57.5" x2="60.4506" y2="-5.1104" gradientTransform="matrix(1 0 0 -1 0 62)">
		<stop  offset="0" style="stop-color:#00B8FF"/>
		<stop  offset="1" style="stop-color:#0091FF"/>
	</linearGradient>
	<path class="st3" d="M39.76,60.71c-0.43,0-0.78-0.35-0.78-0.78V38.81c0-0.43,0.35-0.78,0.78-0.78h7.72c0.43,0,0.78,0.35,0.78,0.78
		v21.12c0,0.43-0.35,0.78-0.78,0.78H39.76z M40.54,59.15h6.16V39.59h-6.16V59.15z"/>
	
		<linearGradient id="SVGID_5_" gradientUnits="userSpaceOnUse" x1="13.0213" y1="68.8565" x2="72.4208" y2="6.2461" gradientTransform="matrix(1 0 0 -1 0 62)">
		<stop  offset="0" style="stop-color:#00B8FF"/>
		<stop  offset="1" style="stop-color:#0091FF"/>
	</linearGradient>
	<path class="st4" d="M55.19,60.71c-0.43,0-0.78-0.35-0.78-0.78V23.38c0-0.43,0.35-0.78,0.78-0.78h7.71c0.43,0,0.78,0.35,0.78,0.78
		v36.55c0,0.43-0.35,0.78-0.78,0.78H55.19z M55.97,59.15h6.16V24.16h-6.16V59.15z"/>
	
		<linearGradient id="SVGID_6_" gradientUnits="userSpaceOnUse" x1="-4.4105" y1="52.3187" x2="54.9891" y2="-10.2917" gradientTransform="matrix(1 0 0 -1 0 62)">
		<stop  offset="0" style="stop-color:#00B8FF"/>
		<stop  offset="1" style="stop-color:#0091FF"/>
	</linearGradient>
	<path class="st5" d="M12.76,32.42c-2.56,0-4.64-2.08-4.64-4.64s2.08-4.64,4.64-4.64s4.64,2.08,4.64,4.64S15.31,32.42,12.76,32.42z
		 M12.76,24.71c-1.7,0-3.08,1.38-3.08,3.08s1.38,3.08,3.08,3.08s3.08-1.38,3.08-3.08C15.83,26.09,14.45,24.71,12.76,24.71z"/>
	
		<linearGradient id="SVGID_7_" gradientUnits="userSpaceOnUse" x1="10.1313" y1="66.1148" x2="69.5309" y2="3.5044" gradientTransform="matrix(1 0 0 -1 0 62)">
		<stop  offset="0" style="stop-color:#00B8FF"/>
		<stop  offset="1" style="stop-color:#0091FF"/>
	</linearGradient>
	<path class="st6" d="M28.19,19.56c-2.56,0-4.64-2.08-4.64-4.64s2.08-4.64,4.64-4.64s4.64,2.08,4.64,4.64S30.74,19.56,28.19,19.56z
		 M28.19,11.85c-1.7,0-3.08,1.38-3.08,3.08s1.38,3.08,3.08,3.08s3.08-1.38,3.08-3.08S29.88,11.85,28.19,11.85z"/>
	
		<linearGradient id="SVGID_8_" gradientUnits="userSpaceOnUse" x1="15.6807" y1="71.3796" x2="75.0803" y2="8.7692" gradientTransform="matrix(1 0 0 -1 0 62)">
		<stop  offset="0" style="stop-color:#00B8FF"/>
		<stop  offset="1" style="stop-color:#0091FF"/>
	</linearGradient>
	<path class="st7" d="M43.62,24.71c-2.56,0-4.64-2.08-4.64-4.64s2.08-4.64,4.64-4.64s4.64,2.08,4.64,4.64S46.18,24.71,43.62,24.71z
		 M43.62,16.99c-1.7,0-3.08,1.38-3.08,3.08s1.38,3.08,3.08,3.08s3.08-1.38,3.08-3.08C46.7,18.37,45.32,16.99,43.62,16.99z"/>
	
		<linearGradient id="SVGID_9_" gradientUnits="userSpaceOnUse" x1="31.5083" y1="86.3955" x2="90.9079" y2="23.7851" gradientTransform="matrix(1 0 0 -1 0 62)">
		<stop  offset="0" style="stop-color:#00B8FF"/>
		<stop  offset="1" style="stop-color:#0091FF"/>
	</linearGradient>
	<path class="st8" d="M59.05,9.27c-2.56,0-4.64-2.08-4.64-4.64S56.49,0,59.05,0s4.64,2.08,4.64,4.64S61.61,9.27,59.05,9.27z
		 M59.05,1.56c-1.7,0-3.08,1.38-3.08,3.08s1.38,3.08,3.08,3.08s3.08-1.38,3.08-3.08C62.13,2.94,60.75,1.56,59.05,1.56z"/>
	
		<linearGradient id="SVGID_10_" gradientUnits="userSpaceOnUse" x1="23.5984" y1="78.8912" x2="82.998" y2="16.2808" gradientTransform="matrix(1 0 0 -1 0 62)">
		<stop  offset="0" style="stop-color:#00B8FF"/>
		<stop  offset="1" style="stop-color:#0091FF"/>
	</linearGradient>
	<path class="st9" d="M46.35,18.12c-0.21,0-0.4-0.08-0.55-0.23c-0.15-0.15-0.23-0.34-0.23-0.55s0.08-0.4,0.23-0.55l9.98-9.98
		c0.15-0.15,0.34-0.23,0.55-0.23s0.4,0.08,0.55,0.23c0.15,0.15,0.23,0.34,0.23,0.55s-0.08,0.4-0.23,0.55l-9.98,9.98
		C46.75,18.04,46.55,18.12,46.35,18.12z"/>
	
		<linearGradient id="SVGID_11_" gradientUnits="userSpaceOnUse" x1="13.1432" y1="68.9721" x2="72.5428" y2="6.3617" gradientTransform="matrix(1 0 0 -1 0 62)">
		<stop  offset="0" style="stop-color:#00B8FF"/>
		<stop  offset="1" style="stop-color:#0091FF"/>
	</linearGradient>
	<path class="st10" d="M40.16,19.12c-0.07,0-0.14-0.01-0.21-0.03l-8.26-2.36c-0.41-0.12-0.65-0.55-0.53-0.96
		c0.1-0.34,0.39-0.57,0.74-0.57c0.07,0,0.15,0.01,0.22,0.03l8.26,2.36c0.2,0.06,0.37,0.19,0.47,0.37c0.1,0.18,0.12,0.39,0.07,0.59
		C40.81,18.88,40.5,19.12,40.16,19.12z"/>
	
		<linearGradient id="SVGID_12_" gradientUnits="userSpaceOnUse" x1="2.8537" y1="59.2104" x2="62.2533" y2="-3.4" gradientTransform="matrix(1 0 0 -1 0 62)">
		<stop  offset="0" style="stop-color:#00B8FF"/>
		<stop  offset="1" style="stop-color:#0091FF"/>
	</linearGradient>
	<path class="st11" d="M15.48,25.84c-0.24,0-0.46-0.11-0.61-0.29c-0.13-0.16-0.19-0.37-0.17-0.57c0.02-0.21,0.13-0.39,0.29-0.52
		l9.69-7.73c0.14-0.11,0.31-0.17,0.48-0.17c0.24,0,0.46,0.11,0.61,0.29c0.27,0.34,0.21,0.83-0.12,1.1l-9.7,7.73
		C15.83,25.78,15.66,25.84,15.48,25.84z"/>
</g>
</svg>
