<?xml version="1.0" encoding="utf-8"?>
<!-- Generator: Adobe Illustrator 23.0.3, SVG Export Plug-In . SVG Version: 6.00 Build 0)  -->
<svg version="1.1" id="Layer_1" xmlns="http://www.w3.org/2000/svg" xmlns:xlink="http://www.w3.org/1999/xlink" x="0px" y="0px"
	 viewBox="0 0 23.7 30.62" style="enable-background:new 0 0 23.7 30.62;" xml:space="preserve">
<style type="text/css">
	.st0{fill:#FFFFFF;}
</style>
<g>
	<g>
		<g>
			<line class="st0" x1="1.64" y1="18.79" x2="11.84" y2="28.98"/>
			<path class="st0" d="M13.48,28.98c0,0.42-0.16,0.84-0.48,1.16c-0.64,0.64-1.68,0.64-2.32,0l-10.2-10.2
				c-0.64-0.64-0.64-1.68,0-2.32c0.64-0.64,1.68-0.64,2.32,0L13,27.82C13.32,28.14,13.48,28.56,13.48,28.98z"/>
		</g>
		<g>
			<line class="st0" x1="22.06" y1="18.79" x2="11.86" y2="28.98"/>
			<path class="st0" d="M23.7,18.79c0,0.42-0.16,0.84-0.48,1.16l-10.2,10.2c-0.64,0.64-1.68,0.64-2.32,0
				c-0.64-0.64-0.64-1.68,0-2.32l10.2-10.2c0.64-0.64,1.68-0.64,2.32,0C23.54,17.95,23.7,18.37,23.7,18.79z"/>
		</g>
		<g>
			<line class="st0" x1="11.84" y1="1.64" x2="11.84" y2="28.9"/>
			<path class="st0" d="M13.48,1.64V28.9c0,0.91-0.73,1.64-1.64,1.64S10.2,29.8,10.2,28.9V1.64C10.2,0.73,10.93,0,11.84,0
				S13.48,0.73,13.48,1.64z"/>
		</g>
	</g>
</g>
</svg>
