<?xml version="1.0" encoding="utf-8"?>
<!-- Generator: Adobe Illustrator 23.0.3, SVG Export Plug-In . SVG Version: 6.00 Build 0)  -->
<svg version="1.1" id="Layer_1" xmlns="http://www.w3.org/2000/svg" xmlns:xlink="http://www.w3.org/1999/xlink" x="0px" y="0px"
	 viewBox="0 0 23.7 30.62" style="enable-background:new 0 0 23.7 30.62;" xml:space="preserve">
<style type="text/css">
	.st0{fill:#FFFFFF;}
</style>
<g>
	<g>
		<g>
			<line class="st0" x1="22.06" y1="11.84" x2="11.86" y2="1.64"/>
			<path class="st0" d="M10.22,1.64c0-0.42,0.16-0.84,0.48-1.16c0.64-0.64,1.68-0.64,2.32,0l10.2,10.2c0.64,0.64,0.64,1.68,0,2.32
				c-0.64,0.64-1.68,0.64-2.32,0L10.7,2.8C10.38,2.48,10.22,2.06,10.22,1.64z"/>
		</g>
		<g>
			<line class="st0" x1="1.64" y1="11.84" x2="11.84" y2="1.64"/>
			<path class="st0" d="M0,11.84c0-0.42,0.16-0.84,0.48-1.16l10.2-10.2c0.64-0.64,1.68-0.64,2.32,0c0.64,0.64,0.64,1.68,0,2.32
				L2.8,13c-0.64,0.64-1.68,0.64-2.32,0C0.16,12.68,0,12.26,0,11.84z"/>
		</g>
		<g>
			<line class="st0" x1="11.86" y1="28.98" x2="11.86" y2="1.73"/>
			<path class="st0" d="M10.22,28.98V1.73c0-0.91,0.73-1.64,1.64-1.64c0.91,0,1.64,0.73,1.64,1.64v27.26c0,0.91-0.73,1.64-1.64,1.64
				C10.95,30.62,10.22,29.89,10.22,28.98z"/>
		</g>
	</g>
</g>
</svg>
