<?xml version="1.0" encoding="utf-8"?>
<!-- Generator: Adobe Illustrator 23.0.3, SVG Export Plug-In . SVG Version: 6.00 Build 0)  -->
<svg version="1.1" id="Layer_1" xmlns="http://www.w3.org/2000/svg" xmlns:xlink="http://www.w3.org/1999/xlink" x="0px" y="0px"
	 viewBox="0 0 560 426.99" style="enable-background:new 0 0 560 426.99;" xml:space="preserve">
<style type="text/css">
	.st0{fill:#32B1D1;}
	.st1{fill:none;stroke:#32B1D1;stroke-width:4;stroke-miterlimit:10;}
	.st2{fill:none;stroke:#32B1D1;stroke-width:4;stroke-linecap:round;stroke-miterlimit:10;}
</style>
<g>
	<g>
		<g>
			<g>
				<path class="st0" d="M537.43,254.88c-2.26,0-4.09-1.84-4.09-4.09c0-2.26,1.84-4.09,4.09-4.09s4.09,1.83,4.09,4.09
					C541.52,253.05,539.68,254.88,537.43,254.88z M418.5,254.88c-14.21,0-25.78-11.56-25.78-25.78v-59.28
					c0-14.21,11.56-25.78,25.78-25.78h11.8v-28.63c0-21.68,18.05-39.32,40.24-39.32c22.19,0,40.24,17.64,40.24,39.32v28.63h11.83
					c2.72,0,5.04,0.29,7.11,0.88c1.05,0.3,1.92,0.99,2.45,1.95c0.53,0.96,0.66,2.06,0.35,3.11c-0.5,1.75-2.12,2.97-3.93,2.97
					c-0.38,0-0.76-0.05-1.13-0.16c-1.33-0.38-2.92-0.56-4.86-0.56H418.5c-9.7,0-17.6,7.89-17.6,17.6v59.28
					c0,9.7,7.89,17.6,17.6,17.6h90.01c2.26,0,4.09,1.84,4.09,4.09s-1.84,4.09-4.09,4.09H418.5z M470.54,84.27
					c-17.67,0-32.06,13.97-32.06,31.14v28.63h64.11v-28.63C502.6,98.24,488.22,84.27,470.54,84.27z M537.46,231.39
					c-2.26,0-4.09-1.84-4.09-4.09v-6.25c0-6.51,3.82-12.34,9.72-14.86c5.2-2.22,8.63-7.31,8.72-12.97l0-0.25
					c0-7.91-6.44-14.35-14.35-14.35c-7.91,0-14.35,6.44-14.35,14.35c0,2.26-1.84,4.09-4.09,4.09s-4.09-1.84-4.09-4.09
					c0-12.43,10.11-22.54,22.54-22.54c12.29,0,22.4,9.99,22.53,22.28l0.01,0.26c0,9.05-5.37,17.19-13.7,20.74
					c-2.89,1.23-4.75,4.11-4.75,7.34v6.25C541.55,229.55,539.72,231.39,537.46,231.39z M484.29,202.11c-2.26,0-4.09-1.84-4.09-4.09
					c0-2.26,1.84-4.09,4.09-4.09s4.09,1.84,4.09,4.09C488.38,200.27,486.55,202.11,484.29,202.11z M457.18,202.11
					c-2.26,0-4.09-1.84-4.09-4.09c0-2.26,1.84-4.09,4.09-4.09c2.26,0,4.09,1.84,4.09,4.09
					C461.27,200.27,459.44,202.11,457.18,202.11z M430.07,202.11c-2.26,0-4.09-1.84-4.09-4.09c0-2.26,1.84-4.09,4.09-4.09
					c2.26,0,4.09,1.84,4.09,4.09C434.16,200.27,432.33,202.11,430.07,202.11z"/>
			</g>
			<path class="st0" d="M243.33,426.99c-15.07,0-27.33-12.26-27.33-27.33V27.33C216,12.26,228.26,0,243.33,0h206.8
				c15.07,0,27.33,12.26,27.33,27.33v18.45c0,2.13-1.67,3.79-3.8,3.79c-2.13,0-3.79-1.67-3.79-3.79V27.33
				c0-10.83-8.85-19.65-19.74-19.65h-206.8c-10.88,0-19.74,8.81-19.74,19.65v372.33c0,10.88,8.85,19.74,19.74,19.74h206.8
				c10.89,0,19.74-8.85,19.74-19.74V281.55c0-2.13,1.67-3.79,3.79-3.79c2.13,0,3.8,1.67,3.8,3.79v118.02
				c0,15.04-12.27,27.33-27.34,27.42H243.33z"/>
			<path class="st0" d="M323.47,401.59c-2.64,0-4.71-2.07-4.71-4.71s2.07-4.71,4.71-4.71h46.6c2.64,0,4.71,2.07,4.71,4.71
				s-2.07,4.71-4.71,4.71H323.47z"/>
		</g>
		<path class="st1" d="M401.02,137.19H254.32c-4.31,0-7.85-3.53-7.85-7.85V41.48c0-4.31,3.53-7.85,7.85-7.85h186.72
			c4.31,0,7.85,3.53,7.85,7.85v23.14"/>
		<path class="st1" d="M448.88,276.05v87.08c0,4.31-3.53,7.85-7.85,7.85H254.32c-4.31,0-7.85-3.53-7.85-7.85V167
			c0-4.31,3.53-7.85,7.85-7.85h119.64"/>
	</g>
	<line class="st2" x1="39" y1="182.33" x2="153" y2="182.33"/>
	<line class="st2" x1="2" y1="221.33" x2="84" y2="221.33"/>
</g>
</svg>
